<svg xmlns="http://www.w3.org/2000/svg" xmlns:xlink="http://www.w3.org/1999/xlink" xmlns:lucid="lucid" width="744.56" height="421"><g transform="translate(80.5 -139.5)" lucid:page-tab-id="KvwTa0K31Lqh"><path d="M220 266a6 6 0 0 1 6-6h87.03a6 6 0 0 1 6 6v48a6 6 0 0 1-6 6H226a6 6 0 0 1-6-6z" stroke="#3a414a" fill="#fff"/><use xlink:href="#a" transform="matrix(1,0,0,1,225,265) translate(6.194444444444443 19.1875)"/><use xlink:href="#b" transform="matrix(1,0,0,1,225,265) translate(16.805555555555557 43.1875)"/><path d="M-60 266a6 6 0 0 1 6-6h85.86a6 6 0 0 1 6 6v48a6 6 0 0 1-6 6H-54a6 6 0 0 1-6-6z" stroke="#3a414a" fill="#fff"/><use xlink:href="#c" transform="matrix(1,0,0,1,-54.999999999999986,265) translate(20.13888888888889 28.75)"/><path d="M-60 166a6 6 0 0 1 6-6h85.86a6 6 0 0 1 6 6v48a6 6 0 0 1-6 6H-54a6 6 0 0 1-6-6z" stroke="#3a414a" fill="#fff"/><use xlink:href="#d" transform="matrix(1,0,0,1,-55.00000000000001,165) translate(17.97222222222222 19.1875)"/><use xlink:href="#e" transform="matrix(1,0,0,1,-55.00000000000001,165) translate(3.5277777777777786 43.1875)"/><path d="M74.55 266a6 6 0 0 1 6-6h87.04a6 6 0 0 1 6 6v48a6 6 0 0 1-6 6H80.54a6 6 0 0 1-6-6z" stroke="#3a414a" fill="#fff"/><use xlink:href="#f" transform="matrix(1,0,0,1,79.5510270859169,265) translate(28.88888888888889 28.75)"/><path d="M193.6 316.8c0 9.27-7.9 16.78-17.65 16.78-9.73 0-17.63-7.5-17.63-16.8 0-9.26 7.9-16.78 17.63-16.78 9.74 0 17.64 7.52 17.64 16.8z" stroke="#979ea8" fill="#dfe3e8"/><use xlink:href="#g" transform="matrix(1,0,0,1,163.32211307488907,305) translate(8.679012345679013 15.444444444444443)"/><path d="M55.26 216.8c0 9.27-7.9 16.78-17.63 16.78-9.74 0-17.63-7.5-17.63-16.8 0-9.26 7.9-16.78 17.63-16.78 9.74 0 17.63 7.52 17.63 16.8z" stroke="#979ea8" fill="#dfe3e8"/><use xlink:href="#h" transform="matrix(1,0,0,1,25,205) translate(4.358024691358027 15.444444444444443)"/><path d="M337.36 316.8c0 9.27-7.9 16.78-17.63 16.78-9.74 0-17.64-7.5-17.64-16.8 0-9.26 7.9-16.78 17.63-16.78 9.73 0 17.63 7.52 17.63 16.8z" stroke="#979ea8" fill="#dfe3e8"/><use xlink:href="#i" transform="matrix(1,0,0,1,307.09319906386133,305) translate(4.358024691358027 15.444444444444443)"/><path d="M53.59 316.8c-.02 9.27-7.9 16.78-17.65 16.78-9.73 0-17.63-7.5-17.63-16.8 0-9.26 7.9-16.78 17.63-16.78 9.74 0 17.63 7.52 17.63 16.8z" stroke="#979ea8" fill="#dfe3e8"/><use xlink:href="#j" transform="matrix(1,0,0,1,23.322113074889096,305) translate(8.679012345679013 15.444444444444443)"/><path d="M38.85 290h18.82" stroke="#3a414a" fill="none"/><path d="M38.87 290.5h-.52v-1h.52z" stroke="#3a414a" stroke-width=".05" fill="#3a414a"/><path d="M72.43 290l-14.26 4.63v-9.26z" stroke="#3a414a" fill="#3a414a"/><path d="M205.95 366a6 6 0 0 1 6-6h111.78a6 6 0 0 1 6 6v68a6 6 0 0 1-6 6H211.95a6 6 0 0 1-6-6z" stroke="#3a414a" fill="#fff"/><use xlink:href="#k" transform="matrix(1,0,0,1,213.95341833811952,368) translate(0.1666666666666643 60.93312000000001)"/><use xlink:href="#l" transform="matrix(1,0,0,1,213.95341833811952,368) translate(74.5 60.93312000000001)"/><path d="M352.62 436.8c0 9.27-7.9 16.78-17.63 16.78-9.75 0-17.64-7.5-17.64-16.8 0-9.26 7.9-16.78 17.63-16.78 9.73 0 17.62 7.52 17.62 16.8z" stroke="#979ea8" fill="#dfe3e8"/><use xlink:href="#m" transform="matrix(1,0,0,1,322.3558094880523,425) translate(4.358024691358027 15.444444444444443)"/><path d="M269.52 321v32.12" stroke="#3a414a" fill="none"/><path d="M270.02 321h-1v-.5h1z" stroke="#3a414a" stroke-width=".05" fill="#3a414a"/><path d="M269.52 367.88l-4.64-14.26h9.27z" stroke="#3a414a" fill="#3a414a"/><path d="M-11.07 221v22.12" stroke="#3a414a" fill="none"/><path d="M-10.57 221h-1v-.5h1z" stroke="#3a414a" stroke-width=".05" fill="#3a414a"/><path d="M-11.07 257.88l-4.64-14.26h9.26z" stroke="#3a414a" fill="#3a414a"/><path d="M174.6 290h28.52" stroke="#3a414a" fill="none"/><path d="M174.6 290.5h-.5v-1h.5z" stroke="#3a414a" stroke-width=".05" fill="#3a414a"/><path d="M217.88 290l-14.26 4.63v-9.26z" stroke="#3a414a" fill="#3a414a"/><path d="M220.84 376a6 6 0 0 1 6-6h85.35a6 6 0 0 1 6 6v21.58a6 6 0 0 1-6 6h-85.36a6 6 0 0 1-6-6z" stroke="#3a414a" fill="#fff"/><use xlink:href="#n" transform="matrix(1,0,0,1,225.83894351369028,375) translate(5.194444444444443 17.5)"/><path d="M460 266a6 6 0 0 1 6-6h111.77a6 6 0 0 1 6 6v48a6 6 0 0 1-6 6H466a6 6 0 0 1-6-6z" stroke="#3a414a" fill="#fff"/><use xlink:href="#o" transform="matrix(1,0,0,1,465.00000000000006,265) translate(6.499999999999993 19.1875)"/><use xlink:href="#p" transform="matrix(1,0,0,1,465.00000000000006,265) translate(40.888888888888886 43.1875)"/><path d="M460 166a6 6 0 0 1 6-6h111.77a6 6 0 0 1 6 6v48a6 6 0 0 1-6 6H466a6 6 0 0 1-6-6z" stroke="#3a414a" fill="#fff"/><use xlink:href="#d" transform="matrix(1,0,0,1,465,165) translate(30.97222222222222 19.1875)"/><use xlink:href="#e" transform="matrix(1,0,0,1,465,165) translate(16.52777777777778 43.1875)"/><path d="M595.26 216.8c0 9.27-7.9 16.78-17.63 16.78-9.74 0-17.63-7.5-17.63-16.8 0-9.26 7.9-16.78 17.63-16.78 9.74 0 17.63 7.52 17.63 16.8z" stroke="#979ea8" fill="#dfe3e8"/><use xlink:href="#h" transform="matrix(1,0,0,1,565,205.00000000000006) translate(4.358024691358027 15.444444444444443)"/><path d="M593.6 316.8c0 9.27-7.9 16.78-17.65 16.78-9.73 0-17.63-7.5-17.63-16.8 0-9.26 7.9-16.78 17.63-16.78 9.74 0 17.63 7.52 17.63 16.8z" stroke="#979ea8" fill="#dfe3e8"/><use xlink:href="#q" transform="matrix(1,0,0,1,563.3221130748891,305) translate(5.654320987654323 15.444444444444443)"/><path d="M460 366a6 6 0 0 1 6-6h111.77a6 6 0 0 1 6 6v68a6 6 0 0 1-6 6H466a6 6 0 0 1-6-6z" stroke="#3a414a" fill="#fff"/><use xlink:href="#k" transform="matrix(1,0,0,1,468,368) translate(0.1666666666666643 60.93312000000001)"/><use xlink:href="#l" transform="matrix(1,0,0,1,468,368) translate(74.5 60.93312000000001)"/><path d="M606.66 436.8c0 9.27-7.9 16.78-17.63 16.78-9.73 0-17.63-7.5-17.63-16.8 0-9.26 7.9-16.78 17.63-16.78 9.74 0 17.63 7.52 17.63 16.8z" stroke="#979ea8" fill="#dfe3e8"/><use xlink:href="#m" transform="matrix(1,0,0,1,576.4023911499328,425) translate(4.358024691358027 15.444444444444443)"/><path d="M521.9 221v22.12" stroke="#3a414a" fill="none"/><path d="M522.4 221h-1v-.5h1z" stroke="#3a414a" stroke-width=".05" fill="#3a414a"/><path d="M521.9 257.88l-4.65-14.26h9.27z" stroke="#3a414a" fill="#3a414a"/><path d="M474.9 376a6 6 0 0 1 6-6h85.34a6 6 0 0 1 6 6v21.58a6 6 0 0 1-6 6H480.9a6 6 0 0 1-6-6z" stroke="#3a414a" fill="#fff"/><use xlink:href="#r" transform="matrix(1,0,0,1,479.8855251755709,375.00000000000017) translate(27.916666666666668 17.5)"/><path d="M521.9 321v22.12" stroke="#3a414a" fill="none"/><path d="M522.4 321h-1v-.5h1z" stroke="#3a414a" stroke-width=".05" fill="#3a414a"/><path d="M521.9 357.88l-4.65-14.26h9.27z" stroke="#3a414a" fill="#3a414a"/><path d="M-15.93 486a6 6 0 0 1 6-6h268a6 6 0 0 1 6 6v48a6 6 0 0 1-6 6h-268a6 6 0 0 1-6-6z" stroke="#000" stroke-opacity="0" fill="#fff" fill-opacity="0"/><g><use xlink:href="#s" transform="matrix(1,0,0,1,-10.932124758636348,485) translate(73.26768663194446 20.681423611111107)"/><use xlink:href="#t" transform="matrix(1,0,0,1,-10.932124758636348,485) translate(135.22406684027777 20.681423611111107)"/><use xlink:href="#u" transform="matrix(1,0,0,1,-10.932124758636348,485) translate(151.31890190972223 20.681423611111107)"/><use xlink:href="#v" transform="matrix(1,0,0,1,-10.932124758636348,485) translate(107.61067708333334 38.91059027777777)"/><use xlink:href="#w" transform="matrix(1,0,0,1,-10.932124758636348,485) translate(130.830078125 38.91059027777777)"/></g><path d="M403.56 486a6 6 0 0 1 6-6h228a6 6 0 0 1 6 6v48a6 6 0 0 1-6 6h-228a6 6 0 0 1-6-6z" stroke="#000" stroke-opacity="0" fill="#fff" fill-opacity="0"/><g><use xlink:href="#s" transform="matrix(1,0,0,1,408.5634298684622,485) translate(37.491861979166686 20.681423611111107)"/><use xlink:href="#x" transform="matrix(1,0,0,1,408.5634298684622,485) translate(99.4482421875 20.681423611111107)"/><use xlink:href="#y" transform="matrix(1,0,0,1,408.5634298684622,485) translate(115.54307725694446 20.681423611111107)"/><use xlink:href="#v" transform="matrix(1,0,0,1,408.5634298684622,485) translate(92.14518229166667 38.91059027777777)"/><use xlink:href="#z" transform="matrix(1,0,0,1,408.5634298684622,485) translate(115.36458333333334 38.91059027777777)"/></g><defs><path fill="#3a414a" d="M63-220v92h138v28H63V0H30v-248h175v28H63" id="A"/><path fill="#3a414a" d="M24-231v-30h32v30H24zM24 0v-190h32V0H24" id="B"/><path fill="#3a414a" d="M114-163C36-179 61-72 57 0H25l-1-190h30c1 12-1 29 2 39 6-27 23-49 58-41v29" id="C"/><path fill="#3a414a" d="M100-194c63 0 86 42 84 106H49c0 40 14 67 53 68 26 1 43-12 49-29l28 8c-11 28-37 45-77 45C44 4 14-33 15-96c1-61 26-98 85-98zm52 81c6-60-76-77-97-28-3 7-6 17-6 28h103" id="D"/><path fill="#3a414a" d="M115-194c53 0 69 39 70 98 0 66-23 100-70 100C84 3 66-7 56-30L54 0H23l1-261h32v101c10-23 28-34 59-34zm-8 174c40 0 45-34 45-75 0-40-5-75-45-74-42 0-51 32-51 76 0 43 10 73 51 73" id="E"/><path fill="#3a414a" d="M141-36C126-15 110 5 73 4 37 3 15-17 15-53c-1-64 63-63 125-63 3-35-9-54-41-54-24 1-41 7-42 31l-33-3c5-37 33-52 76-52 45 0 72 20 72 64v82c-1 20 7 32 28 27v20c-31 9-61-2-59-35zM48-53c0 20 12 33 32 33 41-3 63-29 60-74-43 2-92-5-92 41" id="F"/><path fill="#3a414a" d="M135-143c-3-34-86-38-87 0 15 53 115 12 119 90S17 21 10-45l28-5c4 36 97 45 98 0-10-56-113-15-118-90-4-57 82-63 122-42 12 7 21 19 24 35" id="G"/><g id="a"><use transform="matrix(0.05555555555555555,0,0,0.05555555555555555,0,0)" xlink:href="#A"/><use transform="matrix(0.05555555555555555,0,0,0.05555555555555555,12.166666666666666,0)" xlink:href="#B"/><use transform="matrix(0.05555555555555555,0,0,0.05555555555555555,16.555555555555554,0)" xlink:href="#C"/><use transform="matrix(0.05555555555555555,0,0,0.05555555555555555,23.166666666666664,0)" xlink:href="#D"/><use transform="matrix(0.05555555555555555,0,0,0.05555555555555555,34.27777777777777,0)" xlink:href="#E"/><use transform="matrix(0.05555555555555555,0,0,0.05555555555555555,45.388888888888886,0)" xlink:href="#F"/><use transform="matrix(0.05555555555555555,0,0,0.05555555555555555,56.5,0)" xlink:href="#G"/><use transform="matrix(0.05555555555555555,0,0,0.05555555555555555,66.5,0)" xlink:href="#D"/></g><path fill="#3a414a" d="M87 75C49 33 22-17 22-94c0-76 28-126 65-167h31c-38 41-64 92-64 168S80 34 118 75H87" id="H"/><path fill="#3a414a" d="M212-179c-10-28-35-45-73-45-59 0-87 40-87 99 0 60 29 101 89 101 43 0 62-24 78-52l27 14C228-24 195 4 139 4 59 4 22-46 18-125c-6-104 99-153 187-111 19 9 31 26 39 46" id="I"/><path fill="#3a414a" d="M240 0l2-218c-23 76-54 145-80 218h-23L58-218 59 0H30v-248h44l77 211c21-75 51-140 76-211h43V0h-30" id="J"/><path fill="#3a414a" d="M33-261c38 41 65 92 65 168S71 34 33 75H2C39 34 66-17 66-93S39-220 2-261h31" id="K"/><g id="b"><use transform="matrix(0.05555555555555555,0,0,0.05555555555555555,0,0)" xlink:href="#H"/><use transform="matrix(0.05555555555555555,0,0,0.05555555555555555,6.611111111111111,0)" xlink:href="#A"/><use transform="matrix(0.05555555555555555,0,0,0.05555555555555555,18.77777777777778,0)" xlink:href="#I"/><use transform="matrix(0.05555555555555555,0,0,0.05555555555555555,33.166666666666664,0)" xlink:href="#J"/><use transform="matrix(0.05555555555555555,0,0,0.05555555555555555,49.77777777777777,0)" xlink:href="#K"/></g><path fill="#3a414a" d="M117-194c89-4 53 116 60 194h-32v-121c0-31-8-49-39-48C34-167 62-67 57 0H25l-1-190h30c1 10-1 24 2 32 11-22 29-35 61-36" id="L"/><path fill="#3a414a" d="M177-190C167-65 218 103 67 71c-23-6-38-20-44-43l32-5c15 47 100 32 89-28v-30C133-14 115 1 83 1 29 1 15-40 15-95c0-56 16-97 71-98 29-1 48 16 59 35 1-10 0-23 2-32h30zM94-22c36 0 50-32 50-73 0-42-14-75-50-75-39 0-46 34-46 75s6 73 46 73" id="M"/><path fill="#3a414a" d="M141 0L90-78 38 0H4l68-98-65-92h35l48 74 47-74h35l-64 92 68 98h-35" id="N"/><g id="c"><use transform="matrix(0.05555555555555555,0,0,0.05555555555555555,0,0)" xlink:href="#L"/><use transform="matrix(0.05555555555555555,0,0,0.05555555555555555,11.11111111111111,0)" xlink:href="#M"/><use transform="matrix(0.05555555555555555,0,0,0.05555555555555555,22.22222222222222,0)" xlink:href="#B"/><use transform="matrix(0.05555555555555555,0,0,0.05555555555555555,26.61111111111111,0)" xlink:href="#L"/><use transform="matrix(0.05555555555555555,0,0,0.05555555555555555,37.72222222222222,0)" xlink:href="#N"/></g><path fill="#3a414a" d="M197 0v-115H63V0H30v-248h33v105h134v-105h34V0h-34" id="O"/><path fill="#3a414a" d="M127-220V0H93v-220H8v-28h204v28h-85" id="P"/><path fill="#3a414a" d="M30-248c87 1 191-15 191 75 0 78-77 80-158 76V0H30v-248zm33 125c57 0 124 11 124-50 0-59-68-47-124-48v98" id="Q"/><g id="d"><use transform="matrix(0.05555555555555555,0,0,0.05555555555555555,0,0)" xlink:href="#O"/><use transform="matrix(0.05555555555555555,0,0,0.05555555555555555,14.388888888888888,0)" xlink:href="#P"/><use transform="matrix(0.05555555555555555,0,0,0.05555555555555555,26.555555555555554,0)" xlink:href="#P"/><use transform="matrix(0.05555555555555555,0,0,0.05555555555555555,38.72222222222222,0)" xlink:href="#Q"/></g><path fill="#3a414a" d="M115-194c55 1 70 41 70 98S169 2 115 4C84 4 66-9 55-30l1 105H24l-1-265h31l2 30c10-21 28-34 59-34zm-8 174c40 0 45-34 45-75s-6-73-45-74c-42 0-51 32-51 76 0 43 10 73 51 73" id="R"/><path fill="#3a414a" d="M84 4C-5 8 30-112 23-190h32v120c0 31 7 50 39 49 72-2 45-101 50-169h31l1 190h-30c-1-10 1-25-2-33-11 22-28 36-60 37" id="S"/><path fill="#3a414a" d="M24 0v-261h32V0H24" id="T"/><path fill="#3a414a" d="M106-169C34-169 62-67 57 0H25v-261h32l-1 103c12-21 28-36 61-36 89 0 53 116 60 194h-32v-121c2-32-8-49-39-48" id="U"/><g id="e"><use transform="matrix(0.05555555555555555,0,0,0.05555555555555555,0,0)" xlink:href="#R"/><use transform="matrix(0.05555555555555555,0,0,0.05555555555555555,11.11111111111111,0)" xlink:href="#S"/><use transform="matrix(0.05555555555555555,0,0,0.05555555555555555,22.22222222222222,0)" xlink:href="#E"/><use transform="matrix(0.05555555555555555,0,0,0.05555555555555555,33.33333333333333,0)" xlink:href="#T"/><use transform="matrix(0.05555555555555555,0,0,0.05555555555555555,37.722222222222214,0)" xlink:href="#B"/><use transform="matrix(0.05555555555555555,0,0,0.05555555555555555,42.1111111111111,0)" xlink:href="#G"/><use transform="matrix(0.05555555555555555,0,0,0.05555555555555555,52.1111111111111,0)" xlink:href="#U"/><use transform="matrix(0.05555555555555555,0,0,0.05555555555555555,63.22222222222222,0)" xlink:href="#D"/><use transform="matrix(0.05555555555555555,0,0,0.05555555555555555,74.33333333333333,0)" xlink:href="#C"/></g><path fill="#3a414a" d="M59-47c-2 24 18 29 38 22v24C64 9 27 4 27-40v-127H5v-23h24l9-43h21v43h35v23H59v120" id="V"/><path fill="#3a414a" d="M101-234c-31-9-42 10-38 44h38v23H63V0H32v-167H5v-23h27c-7-52 17-82 69-68v24" id="W"/><path fill="#3a414a" d="M179-190L93 31C79 59 56 82 12 73V49c39 6 53-20 64-50L1-190h34L92-34l54-156h33" id="X"/><g id="f"><use transform="matrix(0.05555555555555555,0,0,0.05555555555555555,0,0)" xlink:href="#L"/><use transform="matrix(0.05555555555555555,0,0,0.05555555555555555,11.11111111111111,0)" xlink:href="#V"/><use transform="matrix(0.05555555555555555,0,0,0.05555555555555555,16.666666666666664,0)" xlink:href="#W"/><use transform="matrix(0.05555555555555555,0,0,0.05555555555555555,22.22222222222222,0)" xlink:href="#X"/></g><path fill="#333" d="M27 0v-27h64v-190l-56 39v-29l58-41h29v221h61V0H27" id="Y"/><use transform="matrix(0.04320987654320987,0,0,0.04320987654320987,0,0)" xlink:href="#Y" id="g"/><path fill="#333" d="M126-127c33 6 58 20 58 59 0 88-139 92-164 29-3-8-5-16-6-25l32-3c6 27 21 44 54 44 32 0 52-15 52-46 0-38-36-46-79-43v-28c39 1 72-4 72-42 0-27-17-43-46-43-28 0-47 15-49 41l-32-3c6-42 35-63 81-64 48-1 79 21 79 65 0 36-21 52-52 59" id="Z"/><g id="h"><use transform="matrix(0.04320987654320987,0,0,0.04320987654320987,0,0)" xlink:href="#Y"/><use transform="matrix(0.04320987654320987,0,0,0.04320987654320987,8.641975308641973,0)" xlink:href="#Z"/></g><path fill="#333" d="M101-251c82-7 93 87 43 132L82-64C71-53 59-42 53-27h129V0H18c2-99 128-94 128-182 0-28-16-43-45-43s-46 15-49 41l-32-3c6-41 34-60 81-64" id="aa"/><g id="i"><use transform="matrix(0.04320987654320987,0,0,0.04320987654320987,0,0)" xlink:href="#aa"/><use transform="matrix(0.04320987654320987,0,0,0.04320987654320987,8.641975308641973,0)" xlink:href="#aa"/></g><use transform="matrix(0.04320987654320987,0,0,0.04320987654320987,0,0)" xlink:href="#aa" id="j"/><path fill="#3a414a" d="M205 0l-28-72H64L36 0H1l101-248h38L239 0h-34zm-38-99l-47-123c-12 45-31 82-46 123h93" id="ab"/><path fill="#3a414a" d="M85-194c31 0 48 13 60 33l-1-100h32l1 261h-30c-2-10 0-23-3-31C134-8 116 4 85 4 32 4 16-35 15-94c0-66 23-100 70-100zm9 24c-40 0-46 34-46 75 0 40 6 74 45 74 42 0 51-32 51-76 0-42-9-74-50-73" id="ac"/><path fill="#3a414a" d="M100-194c62-1 85 37 85 99 1 63-27 99-86 99S16-35 15-95c0-66 28-99 85-99zM99-20c44 1 53-31 53-75 0-43-8-75-51-75s-53 32-53 75 10 74 51 75" id="ad"/><g id="k"><use transform="matrix(0.05555555555555555,0,0,0.05555555555555555,0,0)" xlink:href="#ab"/><use transform="matrix(0.05555555555555555,0,0,0.05555555555555555,13.333333333333332,0)" xlink:href="#L"/><use transform="matrix(0.05555555555555555,0,0,0.05555555555555555,24.444444444444443,0)" xlink:href="#ac"/><use transform="matrix(0.05555555555555555,0,0,0.05555555555555555,35.55555555555556,0)" xlink:href="#C"/><use transform="matrix(0.05555555555555555,0,0,0.05555555555555555,42.16666666666667,0)" xlink:href="#ad"/><use transform="matrix(0.05555555555555555,0,0,0.05555555555555555,53.277777777777786,0)" xlink:href="#B"/><use transform="matrix(0.05555555555555555,0,0,0.05555555555555555,57.66666666666668,0)" xlink:href="#ac"/></g><g id="l"><use transform="matrix(0.05555555555555555,0,0,0.05555555555555555,0,0)" xlink:href="#F"/><use transform="matrix(0.05555555555555555,0,0,0.05555555555555555,11.11111111111111,0)" xlink:href="#R"/><use transform="matrix(0.05555555555555555,0,0,0.05555555555555555,22.22222222222222,0)" xlink:href="#R"/></g><path fill="#333" d="M134-131c28 9 52 24 51 62-1 50-34 73-85 73S17-19 16-69c0-36 21-54 49-61-75-25-45-126 34-121 46 3 78 18 79 63 0 33-17 51-44 57zm-34-11c31 1 46-15 46-44 0-28-17-43-47-42-29 0-46 13-45 42 1 28 16 44 46 44zm1 122c35 0 51-18 51-52 0-30-18-46-53-46-33 0-51 17-51 47 0 34 19 51 53 51" id="ae"/><g id="m"><use transform="matrix(0.04320987654320987,0,0,0.04320987654320987,0,0)" xlink:href="#Y"/><use transform="matrix(0.04320987654320987,0,0,0.04320987654320987,8.641975308641973,0)" xlink:href="#ae"/></g><g id="n"><use transform="matrix(0.05555555555555555,0,0,0.05555555555555555,0,0)" xlink:href="#A"/><use transform="matrix(0.05555555555555555,0,0,0.05555555555555555,12.166666666666666,0)" xlink:href="#B"/><use transform="matrix(0.05555555555555555,0,0,0.05555555555555555,16.555555555555554,0)" xlink:href="#C"/><use transform="matrix(0.05555555555555555,0,0,0.05555555555555555,23.166666666666664,0)" xlink:href="#D"/><use transform="matrix(0.05555555555555555,0,0,0.05555555555555555,34.27777777777777,0)" xlink:href="#E"/><use transform="matrix(0.05555555555555555,0,0,0.05555555555555555,45.388888888888886,0)" xlink:href="#F"/><use transform="matrix(0.05555555555555555,0,0,0.05555555555555555,56.5,0)" xlink:href="#G"/><use transform="matrix(0.05555555555555555,0,0,0.05555555555555555,66.5,0)" xlink:href="#D"/></g><path fill="#3a414a" d="M185-189c-5-48-123-54-124 2 14 75 158 14 163 119 3 78-121 87-175 55-17-10-28-26-33-46l33-7c5 56 141 63 141-1 0-78-155-14-162-118-5-82 145-84 179-34 5 7 8 16 11 25" id="af"/><path fill="#3a414a" d="M16-82v-28h88v28H16" id="ag"/><g id="o"><use transform="matrix(0.05555555555555555,0,0,0.05555555555555555,0,0)" xlink:href="#af"/><use transform="matrix(0.05555555555555555,0,0,0.05555555555555555,13.333333333333332,0)" xlink:href="#D"/><use transform="matrix(0.05555555555555555,0,0,0.05555555555555555,24.444444444444443,0)" xlink:href="#T"/><use transform="matrix(0.05555555555555555,0,0,0.05555555555555555,28.833333333333332,0)" xlink:href="#W"/><use transform="matrix(0.05555555555555555,0,0,0.05555555555555555,34.388888888888886,0)" xlink:href="#ag"/><use transform="matrix(0.05555555555555555,0,0,0.05555555555555555,41,0)" xlink:href="#U"/><use transform="matrix(0.05555555555555555,0,0,0.05555555555555555,52.111111111111114,0)" xlink:href="#ad"/><use transform="matrix(0.05555555555555555,0,0,0.05555555555555555,63.22222222222223,0)" xlink:href="#G"/><use transform="matrix(0.05555555555555555,0,0,0.05555555555555555,73.22222222222223,0)" xlink:href="#V"/><use transform="matrix(0.05555555555555555,0,0,0.05555555555555555,78.77777777777779,0)" xlink:href="#D"/><use transform="matrix(0.05555555555555555,0,0,0.05555555555555555,89.8888888888889,0)" xlink:href="#ac"/></g><g id="p"><use transform="matrix(0.05555555555555555,0,0,0.05555555555555555,0,0)" xlink:href="#L"/><use transform="matrix(0.05555555555555555,0,0,0.05555555555555555,11.11111111111111,0)" xlink:href="#V"/><use transform="matrix(0.05555555555555555,0,0,0.05555555555555555,16.666666666666664,0)" xlink:href="#W"/><use transform="matrix(0.05555555555555555,0,0,0.05555555555555555,22.22222222222222,0)" xlink:href="#X"/></g><path fill="#333" d="M80-196l47-18 7 23-49 13 32 44-20 13-27-46-27 45-21-12 33-44-49-13 8-23 47 19-2-53h23" id="ah"/><g id="q"><use transform="matrix(0.04320987654320987,0,0,0.04320987654320987,0,0)" xlink:href="#Y"/><use transform="matrix(0.04320987654320987,0,0,0.04320987654320987,8.641975308641973,0)" xlink:href="#ah"/></g><path fill="#3a414a" d="M266 0h-40l-56-210L115 0H75L2-248h35L96-30l15-64 43-154h32l59 218 59-218h35" id="ai"/><g id="r"><use transform="matrix(0.05555555555555555,0,0,0.05555555555555555,0,0)" xlink:href="#ai"/><use transform="matrix(0.05555555555555555,0,0,0.05555555555555555,18.833333333333332,0)" xlink:href="#af"/></g><path fill="#3a414a" d="M976-673H364l-90 516h712L958 0H59l253-1456h889l-28 158H472l-81 468h612" id="aj"/><path fill="#3a414a" d="M496-688l294-394h222L578-538 842 0H645L466-404 161 0H-60l447-556-256-526h198" id="ak"/><path fill="#3a414a" d="M693 0c-10-37-6-74-4-114C590-22 484 20 373 20 194 20 47-112 59-292c17-247 243-368 520-365l189 1c15-84 22-185-26-240-65-75-223-71-306-12-47 33-77 73-88 125l-182 1c29-208 221-321 452-321 215 0 378 144 342 364l-88 536c-5 65-10 126 7 186l-2 17H693zM280-192c64 73 206 62 294 10 51-30 96-69 133-120l39-223c-244-11-476 9-502 206-6 51 6 93 36 127" id="al"/><path fill="#3a414a" d="M388-1083l-23 121c91-96 200-143 329-140 138 2 239 67 273 174 101-119 221-177 359-174 217 3 334 162 296 391L1503 0h-180l118-713c18-149-38-232-178-234-141-2-262 104-283 228L857 0H675l120-712c18-144-45-231-178-233-113-3-202 49-269 154L211 0H30l188-1082" id="am"/><path fill="#3a414a" d="M1019-681c4 288-98 524-268 639-157 107-414 73-514-64l-97 522H-41l260-1498 164-1-20 121c89-96 196-144 321-140 224 6 332 183 335 421zM708-236c74-84 127-229 130-405s-61-298-216-305c-105-5-195 47-271 149l-91 519c41 96 114 145 219 148 90 2 166-34 229-106" id="an"/><path fill="#3a414a" d="M227 0H47l266-1536h181" id="ao"/><path fill="#3a414a" d="M267-488c-26 188 71 355 247 357 107 1 205-45 296-144l104 88C832-68 690 21 499 20 214 19 51-235 92-543c28-211 142-407 287-495 158-96 394-79 506 47 97 108 124 311 89 503H267zm509-376c-76-117-261-108-358-11-54 54-99 131-132 235l526 1c18-84 2-166-36-225" id="ap"/><g id="s"><use transform="matrix(0.007595486111111109,0,0,0.007595486111111109,0,0)" xlink:href="#aj"/><use transform="matrix(0.007595486111111109,0,0,0.007595486111111109,8.651258680555554,0)" xlink:href="#ak"/><use transform="matrix(0.007595486111111109,0,0,0.007595486111111109,16.208767361111107,0)" xlink:href="#al"/><use transform="matrix(0.007595486111111109,0,0,0.007595486111111109,24.49544270833333,0)" xlink:href="#am"/><use transform="matrix(0.007595486111111109,0,0,0.007595486111111109,37.79513888888888,0)" xlink:href="#an"/><use transform="matrix(0.007595486111111109,0,0,0.007595486111111109,46.34006076388888,0)" xlink:href="#ao"/><use transform="matrix(0.007595486111111109,0,0,0.007595486111111109,50.07703993055554,0)" xlink:href="#ap"/></g><path fill="#3a414a" d="M604 0H422l214-1228-387 136 31-176 540-195h32" id="aq"/><path fill="#3a414a" d="M74-16C7-82 57-210 154-210c101 0 147 125 79 190-39 37-118 44-159 4zm153-883c-67-66-17-194 80-194 101 0 147 125 79 190-39 37-118 44-159 4" id="ar"/><g id="t"><use transform="matrix(0.007595486111111109,0,0,0.007595486111111109,0,0)" xlink:href="#aq"/><use transform="matrix(0.007595486111111109,0,0,0.007595486111111109,8.552517361111109,0)" xlink:href="#ar"/></g><path fill="#3a414a" d="M390-1083l-26 137c97-107 208-159 332-156 212 6 319 161 280 393L858 0H677l119-712c18-142-34-234-164-234-109 0-204 56-286 174L212 0H31l188-1082" id="as"/><path fill="#3a414a" d="M509-1344l-46 262h197l-25 143H439L326-266c-10 74 15 129 84 126 22 0 51-3 88-10L484 1C371 33 244 25 190-60c-34-53-56-122-42-209l110-670H67l25-143h191l46-262h180" id="at"/><path fill="#3a414a" d="M119 0l164-939H116l25-143h166c16-160 49-300 144-383 101-88 236-115 397-77l-22 151c-96-22-191-11-250 47-61 60-74 158-88 262h224l-25 143H463L300 0H119" id="au"/><path fill="#3a414a" d="M419-273l385-809h200L362 180C273 355 158 442 18 440c-25-1-61-7-109-18l16-150c230 41 293-145 371-295L109-1082h189" id="av"/><path fill="#3a414a" d="M84-16c-67-66-17-194 80-194 101 0 147 125 79 190-39 37-118 44-159 4" id="aw"/><path fill="#3a414a" d="M231-333c-1 124 89 201 217 201 122 0 240-56 253-161 9-75-30-131-123-158l-188-55c-159-55-234-145-230-272 6-193 214-324 421-324 206 0 374 135 365 339l-180-1c4-110-81-185-192-185-115 0-223 63-235 164-8 63 29 112 115 137 217 64 438 103 427 341C871-88 677 18 442 20 228 22 41-122 50-334" id="ax"/><path fill="#3a414a" d="M369-950c95-103 204-154 327-151 212 3 318 162 280 392L858 0H677l119-712c18-142-34-234-164-234-111 0-206 55-286 174L212 0H31l267-1536h181" id="ay"/><g id="u"><use transform="matrix(0.007595486111111109,0,0,0.007595486111111109,0,0)" xlink:href="#as"/><use transform="matrix(0.007595486111111109,0,0,0.007595486111111109,8.400607638888888,0)" xlink:href="#at"/><use transform="matrix(0.007595486111111109,0,0,0.007595486111111109,13.406032986111109,0)" xlink:href="#au"/><use transform="matrix(0.007595486111111109,0,0,0.007595486111111109,18.722873263888886,0)" xlink:href="#av"/><use transform="matrix(0.007595486111111109,0,0,0.007595486111111109,25.12586805555555,0)" xlink:href="#aw"/><use transform="matrix(0.007595486111111109,0,0,0.007595486111111109,29.17426215277777,0)" xlink:href="#ax"/><use transform="matrix(0.007595486111111109,0,0,0.007595486111111109,37.02799479166666,0)" xlink:href="#ay"/></g><path fill="#3a414a" d="M424-253l390-829h191L460 0H322L110-1082h178" id="az"/><path fill="#3a414a" d="M227 0H47l188-1082h180zm73-1444c36-38 112-44 152-6 39 38 38 117 0 155-36 37-114 43-153 5s-35-116 1-154" id="aA"/><g id="v"><use transform="matrix(0.007595486111111109,0,0,0.007595486111111109,0,0)" xlink:href="#az"/><use transform="matrix(0.007595486111111109,0,0,0.007595486111111109,7.382812499999998,0)" xlink:href="#aA"/><use transform="matrix(0.007595486111111109,0,0,0.007595486111111109,11.119791666666664,0)" xlink:href="#al"/></g><path fill="#3a414a" d="M951-643H359L247 0H59l253-1456h876l-28 158H472l-86 498h593" id="aB"/><path fill="#3a414a" d="M1169-464C1124-185 892 29 575 20 229 9 88-284 127-654c28-268 101-490 247-638 124-125 272-187 447-184 282 5 447 200 452 489h-187c-12-217-93-327-273-332-126-3-229 46-315 141-126 140-178 379-192 636-12 223 75 401 278 405 238 4 341-122 403-324" id="aC"/><path fill="#3a414a" d="M549-1456L804-270l668-1186h247L1466 0h-187c65-395 139-782 219-1162L838 0H694L434-1185C379-783 318-386 247 0H59l253-1456h237" id="aD"/><g id="w"><use transform="matrix(0.007595486111111109,0,0,0.007595486111111109,0,0)" xlink:href="#aB"/><use transform="matrix(0.007595486111111109,0,0,0.007595486111111109,8.415798611111109,0)" xlink:href="#aC"/><use transform="matrix(0.007595486111111109,0,0,0.007595486111111109,18.312717013888886,0)" xlink:href="#aD"/></g><path fill="#3a414a" d="M950 0H23l22-141c212-206 425-411 635-619 113-113 174-217 187-312 19-144-68-249-201-253-185-5-306 126-326 297l-179 1c32-271 217-448 512-449 226-1 401 153 379 383-12 128-84 264-221 404-181 185-374 358-560 538h703" id="aE"/><g id="x"><use transform="matrix(0.007595486111111109,0,0,0.007595486111111109,0,0)" xlink:href="#aE"/><use transform="matrix(0.007595486111111109,0,0,0.007595486111111109,8.552517361111109,0)" xlink:href="#ar"/></g><path fill="#3a414a" d="M234-422c-13 180 114 285 295 285s328-86 348-238c15-107-40-185-166-234-77-30-158-55-231-88-195-89-289-214-273-374 26-261 247-405 533-405 268 0 447 166 441 442l-189-1c15-178-89-280-260-283-175-3-317 91-335 244-12 100 47 175 183 226 75 28 154 52 224 85 188 87 278 216 261 386-26 266-254 397-544 397C245 20 38-139 46-423" id="aF"/><path fill="#3a414a" d="M500-543H25l27-151h475" id="aG"/><path fill="#3a414a" d="M368-1032c145-90 364-94 497 4 125 92 200 279 173 497-26 214-136 393-288 484-146 88-361 90-494-7C135-143 64-314 82-523c19-226 133-414 286-509zm19 191c-89 104-138 255-123 450 11 144 88 261 232 261 228 0 333-194 361-401 31-227-34-407-232-420-93-6-173 35-238 110" id="aH"/><path fill="#3a414a" d="M174-98C35-272 67-655 174-841c85-148 201-262 404-262 121 0 213 47 278 132l104-565h181L875 0H710l19-116C595 47 309 72 174-98zm126-594c-73 205-75 556 166 556 105 0 198-48 279-158l86-500c-40-99-113-151-218-152-167-2-264 117-313 254" id="aI"/><g id="y"><use transform="matrix(0.007595486111111109,0,0,0.007595486111111109,0,0)" xlink:href="#aF"/><use transform="matrix(0.007595486111111109,0,0,0.007595486111111109,9.031032986111109,0)" xlink:href="#ap"/><use transform="matrix(0.007595486111111109,0,0,0.007595486111111109,17.097439236111107,0)" xlink:href="#ao"/><use transform="matrix(0.007595486111111109,0,0,0.007595486111111109,20.83441840277777,0)" xlink:href="#au"/><use transform="matrix(0.007595486111111109,0,0,0.007595486111111109,26.15125868055555,0)" xlink:href="#aG"/><use transform="matrix(0.007595486111111109,0,0,0.007595486111111109,30.38953993055555,0)" xlink:href="#ay"/><use transform="matrix(0.007595486111111109,0,0,0.007595486111111109,38.774956597222214,0)" xlink:href="#aH"/><use transform="matrix(0.007595486111111109,0,0,0.007595486111111109,47.456597222222214,0)" xlink:href="#ax"/><use transform="matrix(0.007595486111111109,0,0,0.007595486111111109,55.3103298611111,0)" xlink:href="#at"/><use transform="matrix(0.007595486111111109,0,0,0.007595486111111109,60.31575520833332,0)" xlink:href="#ap"/><use transform="matrix(0.007595486111111109,0,0,0.007595486111111109,68.38216145833331,0)" xlink:href="#aI"/></g><path fill="#3a414a" d="M446-449l-4 176c160-402 336-788 503-1183h159l115 1024 10 166 63-201 372-989h193L1287 0h-171L990-1069l-4-100-42 116L480 0H309L195-1456h183" id="aJ"/><g id="z"><use transform="matrix(0.007595486111111109,0,0,0.007595486111111109,0,0)" xlink:href="#aJ"/><use transform="matrix(0.007595486111111109,0,0,0.007595486111111109,13.459201388888886,0)" xlink:href="#aF"/></g></defs></g></svg>