<svg xmlns="http://www.w3.org/2000/svg" xmlns:xlink="http://www.w3.org/1999/xlink" xmlns:lucid="lucid" width="953.62" height="560.5"><g transform="translate(100.5 -139.49999999999997)" lucid:page-tab-id=".1wTC2ylbTml"><path d="M200 266a6 6 0 0 1 6-6h87.03a6 6 0 0 1 6 6v48a6 6 0 0 1-6 6H206a6 6 0 0 1-6-6z" stroke="#3a414a" fill="#fff"/><use xlink:href="#a" transform="matrix(1,0,0,1,205.00000000000003,265) translate(6.194444444444443 19.1875)"/><use xlink:href="#b" transform="matrix(1,0,0,1,205.00000000000003,265) translate(16.805555555555557 43.1875)"/><path d="M-80 266a6 6 0 0 1 6-6h85.86a6 6 0 0 1 6 6v48a6 6 0 0 1-6 6H-74a6 6 0 0 1-6-6z" stroke="#3a414a" fill="#fff"/><use xlink:href="#c" transform="matrix(1,0,0,1,-74.99999999999999,265) translate(20.13888888888889 28.75)"/><path d="M-80 166a6 6 0 0 1 6-6h85.86a6 6 0 0 1 6 6v48a6 6 0 0 1-6 6H-74a6 6 0 0 1-6-6z" stroke="#3a414a" fill="#fff"/><use xlink:href="#d" transform="matrix(1,0,0,1,-75,164.99999999999997) translate(17.97222222222222 19.1875)"/><use xlink:href="#e" transform="matrix(1,0,0,1,-75,164.99999999999997) translate(3.5277777777777786 43.1875)"/><path d="M54.55 266a6 6 0 0 1 6-6h87.04a6 6 0 0 1 6 6v48a6 6 0 0 1-6 6H60.54a6 6 0 0 1-6-6z" stroke="#3a414a" fill="#fff"/><use xlink:href="#f" transform="matrix(1,0,0,1,59.55102708591689,265) translate(16.305555555555557 28.75)"/><path d="M173.6 316.8c0 9.27-7.9 16.78-17.65 16.78-9.73 0-17.63-7.5-17.63-16.8 0-9.26 7.9-16.78 17.63-16.78 9.74 0 17.64 7.52 17.64 16.8z" stroke="#979ea8" fill="#dfe3e8"/><use xlink:href="#g" transform="matrix(1,0,0,1,143.3221130748891,305) translate(8.679012345679013 15.444444444444443)"/><path d="M35.26 216.8c0 9.27-7.9 16.78-17.63 16.78-9.74 0-17.63-7.5-17.63-16.8C0 207.53 7.9 200 17.63 200c9.74 0 17.63 7.52 17.63 16.8z" stroke="#979ea8" fill="#dfe3e8"/><use xlink:href="#h" transform="matrix(1,0,0,1,5,204.99999999999997) translate(4.358024691358027 15.444444444444443)"/><path d="M315.26 316.8c0 9.27-7.9 16.78-17.63 16.78-9.74 0-17.63-7.5-17.63-16.8 0-9.26 7.9-16.78 17.63-16.78 9.74 0 17.63 7.52 17.63 16.8z" stroke="#979ea8" fill="#dfe3e8"/><use xlink:href="#i" transform="matrix(1,0,0,1,285.0000001102933,305) translate(4.358024691358027 15.444444444444443)"/><path d="M33.59 316.8c-.02 9.27-7.9 16.78-17.65 16.78-9.73 0-17.63-7.5-17.63-16.8 0-9.26 7.9-16.78 17.63-16.78 9.74 0 17.64 7.52 17.64 16.8z" stroke="#979ea8" fill="#dfe3e8"/><use xlink:href="#j" transform="matrix(1,0,0,1,3.322113074889103,305) translate(8.679012345679013 15.444444444444443)"/><path d="M18.86 290h18.8" stroke="#3a414a" fill="none"/><path d="M18.87 290.5h-.52v-1h.52z" stroke="#3a414a" stroke-width=".05" fill="#3a414a"/><path d="M52.43 290l-14.26 4.63v-9.26z" stroke="#3a414a" fill="#3a414a"/><path d="M185.95 455.5a6 6 0 0 1 6-6h111.78a6 6 0 0 1 6 6v68a6 6 0 0 1-6 6H191.95a6 6 0 0 1-6-6z" stroke="#3a414a" fill="#fff"/><use xlink:href="#k" transform="matrix(1,0,0,1,193.95341833811963,457.5000499999999) translate(17.91666666666667 60.93312000000001)"/><use xlink:href="#l" transform="matrix(1,0,0,1,193.95341833811963,457.5000499999999) translate(56.75 60.93312000000001)"/><path d="M330.52 526.3c0 9.27-7.9 16.78-17.63 16.78-9.74 0-17.64-7.5-17.64-16.8 0-9.26 7.9-16.78 17.63-16.78 9.73 0 17.63 7.52 17.63 16.8z" stroke="#979ea8" fill="#dfe3e8"/><use xlink:href="#m" transform="matrix(1,0,0,1,300.2626105344842,514.5000499999999) translate(4.358024691358027 15.444444444444443)"/><path d="M249.52 421v21.62" stroke="#3a414a" fill="none"/><path d="M250.02 421h-1v-.5h1z" stroke="#3a414a" stroke-width=".05" fill="#3a414a"/><path d="M249.52 457.38l-4.64-14.26h9.27z" stroke="#3a414a" fill="#3a414a"/><path d="M-31.07 221v22.12" stroke="#3a414a" fill="none"/><path d="M-30.57 221h-1v-.5h1z" stroke="#3a414a" stroke-width=".05" fill="#3a414a"/><path d="M-31.07 257.88l-4.64-14.26h9.26z" stroke="#3a414a" fill="#3a414a"/><path d="M154.6 290h28.52" stroke="#3a414a" fill="none"/><path d="M154.6 290.5h-.5v-1h.5z" stroke="#3a414a" stroke-width=".05" fill="#3a414a"/><path d="M197.88 290l-14.26 4.63v-9.26z" stroke="#3a414a" fill="#3a414a"/><path d="M200.84 465.5a6 6 0 0 1 6-6h85.35a6 6 0 0 1 6 6v21.58a6 6 0 0 1-6 6h-85.36a6 6 0 0 1-6-6z" stroke="#3a414a" fill="#fff"/><use xlink:href="#n" transform="matrix(1,0,0,1,205.83894351369028,464.50004999999993) translate(18.472222222222225 17.5)"/><path d="M-35.93 625.5a6 6 0 0 1 6-6h268a6 6 0 0 1 6 6v48a6 6 0 0 1-6 6h-268a6 6 0 0 1-6-6z" stroke="#000" stroke-opacity="0" fill="#fff" fill-opacity="0"/><use xlink:href="#o" transform="matrix(1,0,0,1,-30.93212475863635,624.5000499999996) translate(13.772243923611143 20.681423611111107)"/><use xlink:href="#p" transform="matrix(1,0,0,1,-30.93212475863635,624.5000499999996) translate(75.72862413194446 20.681423611111107)"/><use xlink:href="#q" transform="matrix(1,0,0,1,-30.93212475863635,624.5000499999996) translate(91.82345920138891 20.681423611111107)"/><use xlink:href="#r" transform="matrix(1,0,0,1,-30.93212475863635,624.5000499999996) translate(118.85579427083334 20.681423611111107)"/><use xlink:href="#s" transform="matrix(1,0,0,1,-30.93212475863635,624.5000499999996) translate(174.67502170138889 20.681423611111107)"/><use xlink:href="#t" transform="matrix(1,0,0,1,-30.93212475863635,624.5000499999996) translate(210.81434461805554 20.681423611111107)"/><use xlink:href="#u" transform="matrix(1,0,0,1,-30.93212475863635,624.5000499999996) translate(79.97070312500001 38.91059027777777)"/><use xlink:href="#v" transform="matrix(1,0,0,1,-30.93212475863635,624.5000499999996) translate(103.19010416666669 38.91059027777777)"/><use xlink:href="#w" transform="matrix(1,0,0,1,-30.93212475863635,624.5000499999996) translate(138.56228298611111 38.91059027777777)"/><use xlink:href="#x" transform="matrix(1,0,0,1,-30.93212475863635,624.5000499999996) translate(151.83159722222223 38.91059027777777)"/><path d="M476.8 620.8a6 6 0 0 1 6-6h244.43a6 6 0 0 1 6 6v52.7a6 6 0 0 1-6 6H482.8a6 6 0 0 1-6-6z" stroke="#000" stroke-opacity="0" fill="#fff" fill-opacity="0"/><use xlink:href="#o" transform="matrix(1,0,0,1,481.7923616984051,619.8125499999996) translate(26.885416666666686 24.743923611111107)"/><use xlink:href="#y" transform="matrix(1,0,0,1,481.7923616984051,619.8125499999996) translate(88.841796875 24.743923611111107)"/><use xlink:href="#q" transform="matrix(1,0,0,1,481.7923616984051,619.8125499999996) translate(104.93663194444446 24.743923611111107)"/><use xlink:href="#r" transform="matrix(1,0,0,1,481.7923616984051,619.8125499999996) translate(131.96896701388889 24.743923611111107)"/><use xlink:href="#z" transform="matrix(1,0,0,1,481.7923616984051,619.8125499999996) translate(187.78819444444443 24.743923611111107)"/><use xlink:href="#A" transform="matrix(1,0,0,1,481.7923616984051,619.8125499999996) translate(5.580078125000028 42.97309027777777)"/><use xlink:href="#B" transform="matrix(1,0,0,1,481.7923616984051,619.8125499999996) translate(85.18077256944446 42.97309027777777)"/><use xlink:href="#C" transform="matrix(1,0,0,1,481.7923616984051,619.8125499999996) translate(130.76128472222223 42.97309027777777)"/><use xlink:href="#D" transform="matrix(1,0,0,1,481.7923616984051,619.8125499999996) translate(153.98068576388889 42.97309027777777)"/><use xlink:href="#E" transform="matrix(1,0,0,1,481.7923616984051,619.8125499999996) translate(182.49414062499997 42.97309027777777)"/><path d="M200 366a6 6 0 0 1 6-6h87.03a6 6 0 0 1 6 6v48a6 6 0 0 1-6 6H206a6 6 0 0 1-6-6z" stroke="#3a414a" fill="#fff"/><use xlink:href="#n" transform="matrix(1,0,0,1,204.9999998897068,365) translate(19.472222222222225 28.75)"/><path d="M315.26 416.8c0 9.27-7.9 16.78-17.63 16.78-9.74 0-17.63-7.5-17.63-16.8 0-9.26 7.9-16.78 17.63-16.78 9.74 0 17.63 7.52 17.63 16.8z" stroke="#979ea8" fill="#dfe3e8"/><use xlink:href="#F" transform="matrix(1,0,0,1,285,405) translate(4.358024691358027 15.444444444444443)"/><path d="M249.52 321v22.12" stroke="#3a414a" fill="none"/><path d="M250.02 321h-1v-.5h1z" stroke="#3a414a" stroke-width=".05" fill="#3a414a"/><path d="M249.52 357.88l-4.64-14.26h9.27z" stroke="#3a414a" fill="#3a414a"/><path d="M700 266a6 6 0 0 1 6-6h87.03a6 6 0 0 1 6 6v48a6 6 0 0 1-6 6H706a6 6 0 0 1-6-6z" stroke="#3a414a" fill="#fff"/><use xlink:href="#a" transform="matrix(1,0,0,1,705,265) translate(6.194444444444443 19.1875)"/><use xlink:href="#b" transform="matrix(1,0,0,1,705,265) translate(16.805555555555557 43.1875)"/><path d="M393.84 266a6 6 0 0 1 6-6h102.3a6 6 0 0 1 6 6v48a6 6 0 0 1-6 6h-102.3a6 6 0 0 1-6-6z" stroke="#3a414a" fill="#fff"/><use xlink:href="#G" transform="matrix(1,0,0,1,398.84388792506843,265) translate(1.999999999999993 19.1875)"/><use xlink:href="#H" transform="matrix(1,0,0,1,398.84388792506843,265) translate(36.388888888888886 43.1875)"/><path d="M393.84 166a6 6 0 0 1 6-6h102.3a6 6 0 0 1 6 6v48a6 6 0 0 1-6 6h-102.3a6 6 0 0 1-6-6z" stroke="#3a414a" fill="#fff"/><use xlink:href="#d" transform="matrix(1,0,0,1,398.84388792506843,164.99999999999997) translate(26.47222222222222 19.1875)"/><use xlink:href="#e" transform="matrix(1,0,0,1,398.84388792506843,164.99999999999997) translate(12.027777777777779 43.1875)"/><path d="M560 266a6 6 0 0 1 6-6h87.03a6 6 0 0 1 6 6v48a6 6 0 0 1-6 6H566a6 6 0 0 1-6-6z" stroke="#3a414a" fill="#fff"/><use xlink:href="#f" transform="matrix(1,0,0,1,565,265) translate(16.305555555555557 28.75)"/><path d="M664.27 316.8c0 9.27-7.9 16.78-17.63 16.78-9.73 0-17.63-7.5-17.63-16.8 0-9.26 7.9-16.78 17.64-16.78s17.63 7.52 17.63 16.8z" stroke="#979ea8" fill="#dfe3e8"/><use xlink:href="#g" transform="matrix(1,0,0,1,634.0124027825453,305) translate(8.679012345679013 15.444444444444443)"/><path d="M535.26 216.8c0 9.27-7.9 16.78-17.63 16.78-9.74 0-17.63-7.5-17.63-16.8 0-9.26 7.9-16.78 17.63-16.78 9.74 0 17.63 7.52 17.63 16.8z" stroke="#979ea8" fill="#dfe3e8"/><use xlink:href="#h" transform="matrix(1,0,0,1,505,205.00000000000003) translate(4.358024691358027 15.444444444444443)"/><path d="M817.36 316.8c0 9.27-7.9 16.78-17.63 16.78-9.74 0-17.64-7.5-17.64-16.8 0-9.26 7.9-16.78 17.63-16.78 9.73 0 17.63 7.52 17.63 16.8z" stroke="#979ea8" fill="#dfe3e8"/><use xlink:href="#i" transform="matrix(1,0,0,1,787.0931990638613,305) translate(4.358024691358027 15.444444444444443)"/><path d="M515.26 316.8c0 9.27-7.9 16.78-17.63 16.78-9.74 0-17.63-7.5-17.63-16.8 0-9.26 7.9-16.78 17.63-16.78 9.74 0 17.63 7.52 17.63 16.8z" stroke="#979ea8" fill="#dfe3e8"/><use xlink:href="#I" transform="matrix(1,0,0,1,485,305) translate(5.654320987654323 15.444444444444443)"/><path d="M509.14 290h33.98" stroke="#3a414a" fill="none"/><path d="M509.15 290.5h-.5v-1h.5z" stroke="#3a414a" stroke-width=".05" fill="#3a414a"/><path d="M557.88 290l-14.26 4.63v-9.26z" stroke="#3a414a" fill="#3a414a"/><path d="M685.95 455.5a6 6 0 0 1 6-6h111.77a6 6 0 0 1 6 6v68a6 6 0 0 1-6 6H691.96a6 6 0 0 1-6-6z" stroke="#3a414a" fill="#fff"/><use xlink:href="#k" transform="matrix(1,0,0,1,693.9534183381196,457.5000499999999) translate(17.91666666666667 60.93312000000001)"/><use xlink:href="#l" transform="matrix(1,0,0,1,693.9534183381196,457.5000499999999) translate(56.75 60.93312000000001)"/><path d="M832.62 526.3c0 9.27-7.9 16.78-17.63 16.78-9.75 0-17.64-7.5-17.64-16.8 0-9.26 7.9-16.78 17.63-16.78 9.73 0 17.62 7.52 17.62 16.8z" stroke="#979ea8" fill="#dfe3e8"/><use xlink:href="#m" transform="matrix(1,0,0,1,802.3558094880523,514.5000499999999) translate(4.358024691358027 15.444444444444443)"/><path d="M749.52 421v21.62" stroke="#3a414a" fill="none"/><path d="M750.02 421h-1v-.5h1z" stroke="#3a414a" stroke-width=".05" fill="#3a414a"/><path d="M749.52 457.38l-4.64-14.26h9.27z" stroke="#3a414a" fill="#3a414a"/><path d="M451 221v22.12" stroke="#3a414a" fill="none"/><path d="M451.5 221h-1v-.5h1z" stroke="#3a414a" stroke-width=".05" fill="#3a414a"/><path d="M451 257.88l-4.64-14.26h9.26z" stroke="#3a414a" fill="#3a414a"/><path d="M660.03 290h23.1" stroke="#3a414a" fill="none"/><path d="M660.05 290.5h-.52v-1h.52z" stroke="#3a414a" stroke-width=".05" fill="#3a414a"/><path d="M697.88 290l-14.26 4.63v-9.26z" stroke="#3a414a" fill="#3a414a"/><path d="M700.84 465.5a6 6 0 0 1 6-6h85.36a6 6 0 0 1 6 6v21.58a6 6 0 0 1-6 6h-85.36a6 6 0 0 1-6-6z" stroke="#3a414a" fill="#fff"/><g><use xlink:href="#n" transform="matrix(1,0,0,1,705.8389435136903,464.50005000000004) translate(18.472222222222225 17.5)"/></g><path d="M700 366a6 6 0 0 1 6-6h87.03a6 6 0 0 1 6 6v48a6 6 0 0 1-6 6H706a6 6 0 0 1-6-6z" stroke="#3a414a" fill="#fff"/><g><use xlink:href="#n" transform="matrix(1,0,0,1,704.9999998897068,365) translate(19.472222222222225 28.75)"/></g><path d="M817.36 416.8c0 9.27-7.9 16.78-17.63 16.78-9.74 0-17.64-7.5-17.64-16.8 0-9.26 7.9-16.78 17.63-16.78 9.73 0 17.63 7.52 17.63 16.8z" stroke="#979ea8" fill="#dfe3e8"/><g><use xlink:href="#F" transform="matrix(1,0,0,1,787.093198953568,405) translate(4.358024691358027 15.444444444444443)"/></g><path d="M749.52 321v22.12" stroke="#3a414a" fill="none"/><path d="M750.02 321h-1v-.5h1z" stroke="#3a414a" stroke-width=".05" fill="#3a414a"/><path d="M749.52 357.88l-4.64-14.26h9.27z" stroke="#3a414a" fill="#3a414a"/><path d="M457.34 472.65l.15.35-.16.35-.35.15-.36-.15-.15-.35.14-.35.35-.15zm4 0l.15.35-.16.35-.35.15-.36-.15-.15-.35.14-.35.35-.15zm4 0l.15.35-.16.35-.35.15-.37-.15-.14-.35.13-.35.36-.15zm4 0l.15.35-.16.35-.35.15-.37-.15-.14-.35.13-.35.36-.15zm4 0l.15.35-.16.35-.35.15-.37-.15-.14-.35.13-.35.36-.15zm4 0l.15.35-.16.35-.35.15-.37-.15-.14-.35.13-.35.36-.15zm4 0l.15.35-.16.35-.35.15-.37-.15-.14-.35.13-.35.36-.15zm4 0l.15.35-.16.35-.35.15-.37-.15-.14-.35.13-.35.36-.15zm4 0l.15.35-.16.35-.35.15-.37-.15-.14-.35.13-.35.36-.15zm127.98 0l.14.35-.14.35-.36.15-.35-.15-.14-.35.15-.35.36-.15zm4 0l.14.35-.14.35-.36.15-.35-.15-.14-.35.15-.35.36-.15zm4 0l.14.35-.14.35-.36.15-.35-.15-.14-.35.15-.35.36-.15zm4 0l.14.35-.14.35-.36.15-.35-.15-.14-.35.15-.35.36-.15zm4 0l.14.35-.14.35-.36.15-.35-.15-.14-.35.15-.35.36-.15zm4 0l.14.35-.14.35-.36.15-.35-.15-.14-.35.15-.35.36-.15zm4 0l.14.35-.15.35-.34.15-.35-.15-.14-.35.15-.35.36-.15zm4 0l.14.35-.15.35-.34.15-.35-.15-.14-.35.15-.35.36-.15zm4 0l.14.35-.15.35-.34.15-.35-.15-.14-.35.15-.35.36-.15zm4 0l.14.35-.15.35-.34.15-.36-.15-.14-.35.14-.35.36-.15zm4 0l.14.35-.15.35-.34.15-.36-.15-.14-.35.14-.35.36-.15zm4 0l.14.35-.15.35-.34.15-.36-.15-.14-.35.14-.35.36-.15zm4 0l.14.35-.15.35-.34.15-.36-.15-.14-.35.14-.35.36-.15zm4 0l.14.35-.15.35-.34.15-.36-.15-.14-.35.14-.35.36-.15zm4 0l.13.35-.14.35-.34.15-.36-.15-.14-.35.14-.35.36-.15zm4 0l.13.35-.14.35-.34.15-.36-.15-.14-.35.14-.35.36-.15zm4 0l.13.35-.14.35-.35.15-.35-.15-.15-.35.15-.35.35-.15zm4 0l.13.35-.14.35-.35.15-.35-.15-.15-.35.15-.35.35-.15zM453.1 470.9l.15.34-.15.36-.35.14-.36-.14-.15-.36.14-.35.35-.16zm-1.76-4.25l.15.35-.16.35-.35.15-.36-.15-.15-.35.14-.35.35-.15zm0-3.95l.15.36-.16.35-.35.16-.36-.15-.15-.34.14-.36.35-.14zm0-3.94l.15.35-.16.37-.35.14-.36-.13-.15-.36.14-.34.35-.15zm0-3.94l.15.35-.16.35-.35.15-.36-.15-.15-.35.14-.35.35-.15zm0-3.94l.15.35-.16.35-.35.15-.36-.15-.15-.35.14-.36.35-.14zm0-3.95l.15.36-.16.34-.35.15-.36-.16-.15-.35.14-.37.35-.14zm0-3.94l.15.34-.16.36-.35.14-.36-.14-.15-.36.14-.35.35-.16zm0-3.95l.15.35-.16.35-.35.15-.36-.15-.15-.35.14-.35.35-.15zm0-3.95l.15.36-.16.35-.35.16-.36-.15-.15-.34.14-.36.35-.14zm0-3.94l.15.35-.16.37-.35.14-.36-.13-.15-.36.14-.34.35-.15zm0-3.94l.15.35-.16.35-.35.15-.36-.15-.15-.35.14-.35.35-.15zm0-3.95l.15.36-.16.35-.35.15-.36-.15-.15-.35.14-.36.35-.14zm0-3.94l.15.36-.16.34-.35.14-.36-.14-.15-.36.14-.35.35-.14zm0-3.94l.15.34-.16.36-.35.14-.36-.14-.15-.36.14-.35.35-.16zm0-3.95l.15.35-.16.35-.35.15-.36-.15-.15-.35.14-.35.35-.15zm0-3.95l.15.36-.16.35-.35.16-.36-.15-.15-.34.14-.36.35-.14zm0-3.94l.15.35-.16.37-.35.14-.36-.13-.15-.36.14-.34.35-.15zm0-3.94l.15.35-.16.35-.35.15-.36-.15-.15-.35.14-.35.35-.15zm0-3.95l.15.36-.16.35-.35.15-.36-.15-.15-.35.14-.36.35-.14zm0-3.94l.15.35-.16.36-.35.14-.36-.14-.15-.36.14-.35.35-.15zm0-3.94l.15.34-.16.36-.35.14-.36-.14-.15-.36.14-.35.35-.16zm0-3.95l.15.35-.16.35-.35.15-.36-.15-.15-.35.14-.35.35-.15zm0-3.95l.15.36-.16.35-.35.16-.36-.15-.15-.34.14-.36.35-.14zm0-3.94l.15.35-.16.37-.35.14-.36-.13-.15-.36.14-.34.35-.15zm0-3.94l.15.35-.16.35-.35.15-.36-.15-.15-.35.14-.35.35-.15zm0-3.95l.15.36-.16.35-.35.15-.36-.15-.15-.35.14-.36.35-.14zm0-3.94l.15.35-.16.36-.35.14-.36-.14-.15-.36.14-.35.35-.15zm0-3.94l.15.34-.16.35-.35.14-.36-.15-.15-.36.14-.35.35-.16zm0-3.95l.15.35-.16.35-.35.15-.36-.15-.15-.35.14-.36.35-.14zm0-3.95l.15.35-.16.36-.35.15-.36-.14-.15-.35.14-.35.35-.15zm0-3.94l.15.35-.16.37-.35.14-.36-.13-.15-.36.14-.34.35-.15zm0-3.94l.15.35-.16.35-.35.15-.36-.15-.15-.35.14-.35.35-.15zm0-3.95l.15.36-.16.35-.35.15-.36-.15-.15-.35.14-.36.35-.14zm0-3.94l.15.35-.16.36-.35.14-.36-.14-.15-.36.14-.35.35-.15z" fill="#3a414a"/><path d="M685.45 473.5h-.5v-1h.5z" fill="#3a414a"/><path d="M685.48 473.52h-.56v-1.04h.56zm-.5-1v.96h.45v-.96z" stroke="#3a414a" stroke-width=".05" fill="#3a414a"/><path d="M455.63 336.38h-9.27l4.63-14.26z" fill="#3a414a"/><path d="M456.3 336.88h-10.63L451 320.5zm-9.26-1h7.9L451 323.74z" stroke="#3a414a" stroke-width=".05" fill="#3a414a"/><g><use xlink:href="#J" transform="matrix(1,0,0,1,492.34567901234567,451.6666630586607) translate(46.893888888888895 14.222222222222223)"/><use xlink:href="#K" transform="matrix(1,0,0,1,492.34567901234567,451.6666630586607) translate(0.005000000000002558 35.55555555555556)"/><use xlink:href="#L" transform="matrix(1,0,0,1,492.34567901234567,451.6666630586607) translate(51.26425925925927 35.55555555555556)"/></g><path d="M535.76 300.5c0 .28-.22.5-.5.5-.27 0-.5-.22-.5-.5s.23-.5.5-.5c.28 0 .5.22.5.5zm0 3.9c0 .28-.22.5-.5.5-.27 0-.5-.22-.5-.5s.23-.5.5-.5c.28 0 .5.22.5.5zm0 3.9c0 .28-.22.5-.5.5-.27 0-.5-.22-.5-.5s.23-.5.5-.5c.28 0 .5.22.5.5zm0 3.9c0 .28-.22.5-.5.5-.27 0-.5-.22-.5-.5s.23-.5.5-.5c.28 0 .5.22.5.5zm0 3.9c0 .28-.22.5-.5.5-.27 0-.5-.22-.5-.5s.23-.5.5-.5c.28 0 .5.22.5.5zm0 3.9c0 .28-.22.5-.5.5-.27 0-.5-.22-.5-.5s.23-.5.5-.5c.28 0 .5.22.5.5zm0 3.9c0 .28-.22.5-.5.5-.27 0-.5-.22-.5-.5s.23-.5.5-.5c.28 0 .5.22.5.5zm0 3.9c0 .28-.22.5-.5.5-.27 0-.5-.22-.5-.5s.23-.5.5-.5c.28 0 .5.22.5.5zm0 3.9c0 .28-.22.5-.5.5-.27 0-.5-.22-.5-.5s.23-.5.5-.5c.28 0 .5.22.5.5zm0 3.9c0 .28-.22.5-.5.5-.27 0-.5-.22-.5-.5s.23-.5.5-.5c.28 0 .5.22.5.5zm0 3.9c0 .28-.22.5-.5.5-.27 0-.5-.22-.5-.5s.23-.5.5-.5c.28 0 .5.22.5.5z" fill="#3a414a"/><path d="M535.26 300.5v-.5" stroke="#3a414a" fill="none"/><path d="M535.76 340h-1v-.5h1z" stroke="#3a414a" stroke-width=".05" fill="#3a414a"/><path d="M476.8 346a6 6 0 0 1 6-6h124.43a6 6 0 0 1 6 6v21.58a6 6 0 0 1-6 6H482.8a6 6 0 0 1-6-6z" stroke="#000" stroke-opacity="0" fill="#fff" fill-opacity="0"/><g><use xlink:href="#M" transform="matrix(1,0,0,1,481.7923616984051,345) translate(18.42838541666668 17.431423611111107)"/><use xlink:href="#N" transform="matrix(1,0,0,1,481.7923616984051,345) translate(52.175130208333336 17.431423611111107)"/></g><defs><path fill="#3a414a" d="M63-220v92h138v28H63V0H30v-248h175v28H63" id="O"/><path fill="#3a414a" d="M24-231v-30h32v30H24zM24 0v-190h32V0H24" id="P"/><path fill="#3a414a" d="M114-163C36-179 61-72 57 0H25l-1-190h30c1 12-1 29 2 39 6-27 23-49 58-41v29" id="Q"/><path fill="#3a414a" d="M100-194c63 0 86 42 84 106H49c0 40 14 67 53 68 26 1 43-12 49-29l28 8c-11 28-37 45-77 45C44 4 14-33 15-96c1-61 26-98 85-98zm52 81c6-60-76-77-97-28-3 7-6 17-6 28h103" id="R"/><path fill="#3a414a" d="M115-194c53 0 69 39 70 98 0 66-23 100-70 100C84 3 66-7 56-30L54 0H23l1-261h32v101c10-23 28-34 59-34zm-8 174c40 0 45-34 45-75 0-40-5-75-45-74-42 0-51 32-51 76 0 43 10 73 51 73" id="S"/><path fill="#3a414a" d="M141-36C126-15 110 5 73 4 37 3 15-17 15-53c-1-64 63-63 125-63 3-35-9-54-41-54-24 1-41 7-42 31l-33-3c5-37 33-52 76-52 45 0 72 20 72 64v82c-1 20 7 32 28 27v20c-31 9-61-2-59-35zM48-53c0 20 12 33 32 33 41-3 63-29 60-74-43 2-92-5-92 41" id="T"/><path fill="#3a414a" d="M135-143c-3-34-86-38-87 0 15 53 115 12 119 90S17 21 10-45l28-5c4 36 97 45 98 0-10-56-113-15-118-90-4-57 82-63 122-42 12 7 21 19 24 35" id="U"/><g id="a"><use transform="matrix(0.05555555555555555,0,0,0.05555555555555555,0,0)" xlink:href="#O"/><use transform="matrix(0.05555555555555555,0,0,0.05555555555555555,12.166666666666666,0)" xlink:href="#P"/><use transform="matrix(0.05555555555555555,0,0,0.05555555555555555,16.555555555555554,0)" xlink:href="#Q"/><use transform="matrix(0.05555555555555555,0,0,0.05555555555555555,23.166666666666664,0)" xlink:href="#R"/><use transform="matrix(0.05555555555555555,0,0,0.05555555555555555,34.27777777777777,0)" xlink:href="#S"/><use transform="matrix(0.05555555555555555,0,0,0.05555555555555555,45.388888888888886,0)" xlink:href="#T"/><use transform="matrix(0.05555555555555555,0,0,0.05555555555555555,56.5,0)" xlink:href="#U"/><use transform="matrix(0.05555555555555555,0,0,0.05555555555555555,66.5,0)" xlink:href="#R"/></g><path fill="#3a414a" d="M87 75C49 33 22-17 22-94c0-76 28-126 65-167h31c-38 41-64 92-64 168S80 34 118 75H87" id="V"/><path fill="#3a414a" d="M212-179c-10-28-35-45-73-45-59 0-87 40-87 99 0 60 29 101 89 101 43 0 62-24 78-52l27 14C228-24 195 4 139 4 59 4 22-46 18-125c-6-104 99-153 187-111 19 9 31 26 39 46" id="W"/><path fill="#3a414a" d="M240 0l2-218c-23 76-54 145-80 218h-23L58-218 59 0H30v-248h44l77 211c21-75 51-140 76-211h43V0h-30" id="X"/><path fill="#3a414a" d="M33-261c38 41 65 92 65 168S71 34 33 75H2C39 34 66-17 66-93S39-220 2-261h31" id="Y"/><g id="b"><use transform="matrix(0.05555555555555555,0,0,0.05555555555555555,0,0)" xlink:href="#V"/><use transform="matrix(0.05555555555555555,0,0,0.05555555555555555,6.611111111111111,0)" xlink:href="#O"/><use transform="matrix(0.05555555555555555,0,0,0.05555555555555555,18.77777777777778,0)" xlink:href="#W"/><use transform="matrix(0.05555555555555555,0,0,0.05555555555555555,33.166666666666664,0)" xlink:href="#X"/><use transform="matrix(0.05555555555555555,0,0,0.05555555555555555,49.77777777777777,0)" xlink:href="#Y"/></g><path fill="#3a414a" d="M117-194c89-4 53 116 60 194h-32v-121c0-31-8-49-39-48C34-167 62-67 57 0H25l-1-190h30c1 10-1 24 2 32 11-22 29-35 61-36" id="Z"/><path fill="#3a414a" d="M177-190C167-65 218 103 67 71c-23-6-38-20-44-43l32-5c15 47 100 32 89-28v-30C133-14 115 1 83 1 29 1 15-40 15-95c0-56 16-97 71-98 29-1 48 16 59 35 1-10 0-23 2-32h30zM94-22c36 0 50-32 50-73 0-42-14-75-50-75-39 0-46 34-46 75s6 73 46 73" id="aa"/><path fill="#3a414a" d="M141 0L90-78 38 0H4l68-98-65-92h35l48 74 47-74h35l-64 92 68 98h-35" id="ab"/><g id="c"><use transform="matrix(0.05555555555555555,0,0,0.05555555555555555,0,0)" xlink:href="#Z"/><use transform="matrix(0.05555555555555555,0,0,0.05555555555555555,11.11111111111111,0)" xlink:href="#aa"/><use transform="matrix(0.05555555555555555,0,0,0.05555555555555555,22.22222222222222,0)" xlink:href="#P"/><use transform="matrix(0.05555555555555555,0,0,0.05555555555555555,26.61111111111111,0)" xlink:href="#Z"/><use transform="matrix(0.05555555555555555,0,0,0.05555555555555555,37.72222222222222,0)" xlink:href="#ab"/></g><path fill="#3a414a" d="M197 0v-115H63V0H30v-248h33v105h134v-105h34V0h-34" id="ac"/><path fill="#3a414a" d="M127-220V0H93v-220H8v-28h204v28h-85" id="ad"/><path fill="#3a414a" d="M30-248c87 1 191-15 191 75 0 78-77 80-158 76V0H30v-248zm33 125c57 0 124 11 124-50 0-59-68-47-124-48v98" id="ae"/><g id="d"><use transform="matrix(0.05555555555555555,0,0,0.05555555555555555,0,0)" xlink:href="#ac"/><use transform="matrix(0.05555555555555555,0,0,0.05555555555555555,14.388888888888888,0)" xlink:href="#ad"/><use transform="matrix(0.05555555555555555,0,0,0.05555555555555555,26.555555555555554,0)" xlink:href="#ad"/><use transform="matrix(0.05555555555555555,0,0,0.05555555555555555,38.72222222222222,0)" xlink:href="#ae"/></g><path fill="#3a414a" d="M115-194c55 1 70 41 70 98S169 2 115 4C84 4 66-9 55-30l1 105H24l-1-265h31l2 30c10-21 28-34 59-34zm-8 174c40 0 45-34 45-75s-6-73-45-74c-42 0-51 32-51 76 0 43 10 73 51 73" id="af"/><path fill="#3a414a" d="M84 4C-5 8 30-112 23-190h32v120c0 31 7 50 39 49 72-2 45-101 50-169h31l1 190h-30c-1-10 1-25-2-33-11 22-28 36-60 37" id="ag"/><path fill="#3a414a" d="M24 0v-261h32V0H24" id="ah"/><path fill="#3a414a" d="M106-169C34-169 62-67 57 0H25v-261h32l-1 103c12-21 28-36 61-36 89 0 53 116 60 194h-32v-121c2-32-8-49-39-48" id="ai"/><g id="e"><use transform="matrix(0.05555555555555555,0,0,0.05555555555555555,0,0)" xlink:href="#af"/><use transform="matrix(0.05555555555555555,0,0,0.05555555555555555,11.11111111111111,0)" xlink:href="#ag"/><use transform="matrix(0.05555555555555555,0,0,0.05555555555555555,22.22222222222222,0)" xlink:href="#S"/><use transform="matrix(0.05555555555555555,0,0,0.05555555555555555,33.33333333333333,0)" xlink:href="#ah"/><use transform="matrix(0.05555555555555555,0,0,0.05555555555555555,37.722222222222214,0)" xlink:href="#P"/><use transform="matrix(0.05555555555555555,0,0,0.05555555555555555,42.1111111111111,0)" xlink:href="#U"/><use transform="matrix(0.05555555555555555,0,0,0.05555555555555555,52.1111111111111,0)" xlink:href="#ai"/><use transform="matrix(0.05555555555555555,0,0,0.05555555555555555,63.22222222222222,0)" xlink:href="#R"/><use transform="matrix(0.05555555555555555,0,0,0.05555555555555555,74.33333333333333,0)" xlink:href="#Q"/></g><path fill="#3a414a" d="M59-47c-2 24 18 29 38 22v24C64 9 27 4 27-40v-127H5v-23h24l9-43h21v43h35v23H59v120" id="aj"/><path fill="#3a414a" d="M101-234c-31-9-42 10-38 44h38v23H63V0H32v-167H5v-23h27c-7-52 17-82 69-68v24" id="ak"/><path fill="#3a414a" d="M179-190L93 31C79 59 56 82 12 73V49c39 6 53-20 64-50L1-190h34L92-34l54-156h33" id="al"/><path fill="#3a414a" d="M33 0v-38h34V0H33" id="am"/><g id="f"><use transform="matrix(0.05555555555555555,0,0,0.05555555555555555,0,0)" xlink:href="#Z"/><use transform="matrix(0.05555555555555555,0,0,0.05555555555555555,11.11111111111111,0)" xlink:href="#aj"/><use transform="matrix(0.05555555555555555,0,0,0.05555555555555555,16.666666666666664,0)" xlink:href="#ak"/><use transform="matrix(0.05555555555555555,0,0,0.05555555555555555,22.22222222222222,0)" xlink:href="#al"/><use transform="matrix(0.05555555555555555,0,0,0.05555555555555555,30.72222222222222,0)" xlink:href="#am"/><use transform="matrix(0.05555555555555555,0,0,0.05555555555555555,36.27777777777778,0)" xlink:href="#U"/><use transform="matrix(0.05555555555555555,0,0,0.05555555555555555,46.27777777777778,0)" xlink:href="#ai"/></g><path fill="#333" d="M27 0v-27h64v-190l-56 39v-29l58-41h29v221h61V0H27" id="an"/><use transform="matrix(0.04320987654320987,0,0,0.04320987654320987,0,0)" xlink:href="#an" id="g"/><path fill="#333" d="M126-127c33 6 58 20 58 59 0 88-139 92-164 29-3-8-5-16-6-25l32-3c6 27 21 44 54 44 32 0 52-15 52-46 0-38-36-46-79-43v-28c39 1 72-4 72-42 0-27-17-43-46-43-28 0-47 15-49 41l-32-3c6-42 35-63 81-64 48-1 79 21 79 65 0 36-21 52-52 59" id="ao"/><g id="h"><use transform="matrix(0.04320987654320987,0,0,0.04320987654320987,0,0)" xlink:href="#an"/><use transform="matrix(0.04320987654320987,0,0,0.04320987654320987,8.641975308641973,0)" xlink:href="#ao"/></g><path fill="#333" d="M101-251c82-7 93 87 43 132L82-64C71-53 59-42 53-27h129V0H18c2-99 128-94 128-182 0-28-16-43-45-43s-46 15-49 41l-32-3c6-41 34-60 81-64" id="ap"/><g id="i"><use transform="matrix(0.04320987654320987,0,0,0.04320987654320987,0,0)" xlink:href="#ap"/><use transform="matrix(0.04320987654320987,0,0,0.04320987654320987,8.641975308641973,0)" xlink:href="#ap"/></g><use transform="matrix(0.04320987654320987,0,0,0.04320987654320987,0,0)" xlink:href="#ap" id="j"/><path fill="#3a414a" d="M140-251c81 0 123 46 123 126C263-46 219 4 140 4 59 4 17-45 17-125s42-126 123-126zm0 227c63 0 89-41 89-101s-29-99-89-99c-61 0-89 39-89 99S79-25 140-24" id="aq"/><path fill="#3a414a" d="M185-189c-5-48-123-54-124 2 14 75 158 14 163 119 3 78-121 87-175 55-17-10-28-26-33-46l33-7c5 56 141 63 141-1 0-78-155-14-162-118-5-82 145-84 179-34 5 7 8 16 11 25" id="ar"/><g id="k"><use transform="matrix(0.05555555555555555,0,0,0.05555555555555555,0,0)" xlink:href="#P"/><use transform="matrix(0.05555555555555555,0,0,0.05555555555555555,4.388888888888888,0)" xlink:href="#aq"/><use transform="matrix(0.05555555555555555,0,0,0.05555555555555555,19.944444444444443,0)" xlink:href="#ar"/></g><g id="l"><use transform="matrix(0.05555555555555555,0,0,0.05555555555555555,0,0)" xlink:href="#T"/><use transform="matrix(0.05555555555555555,0,0,0.05555555555555555,11.11111111111111,0)" xlink:href="#af"/><use transform="matrix(0.05555555555555555,0,0,0.05555555555555555,22.22222222222222,0)" xlink:href="#af"/></g><path fill="#333" d="M99-251c64 0 84 50 84 122C183-37 130 33 47-8c-14-7-20-23-25-40l30-5c6 39 69 39 84 7 9-19 16-44 16-74-10 22-31 35-62 35-49 0-73-33-73-83 0-54 28-83 82-83zm-1 141c31-1 51-18 51-49 0-36-14-67-51-67-34 0-49 23-49 58 0 34 15 58 49 58" id="as"/><g id="m"><use transform="matrix(0.04320987654320987,0,0,0.04320987654320987,0,0)" xlink:href="#an"/><use transform="matrix(0.04320987654320987,0,0,0.04320987654320987,8.641975308641973,0)" xlink:href="#as"/></g><path fill="#3a414a" d="M205 0l-28-72H64L36 0H1l101-248h38L239 0h-34zm-38-99l-47-123c-12 45-31 82-46 123h93" id="at"/><path fill="#3a414a" d="M190 0L58-211 59 0H30v-248h39L202-35l-2-213h31V0h-41" id="au"/><g id="n"><use transform="matrix(0.05555555555555555,0,0,0.05555555555555555,0,0)" xlink:href="#at"/><use transform="matrix(0.05555555555555555,0,0,0.05555555555555555,13.333333333333332,0)" xlink:href="#ae"/><use transform="matrix(0.05555555555555555,0,0,0.05555555555555555,26.666666666666664,0)" xlink:href="#au"/><use transform="matrix(0.05555555555555555,0,0,0.05555555555555555,41.05555555555555,0)" xlink:href="#U"/></g><path fill="#3a414a" d="M976-673H364l-90 516h712L958 0H59l253-1456h889l-28 158H472l-81 468h612" id="av"/><path fill="#3a414a" d="M496-688l294-394h222L578-538 842 0H645L466-404 161 0H-60l447-556-256-526h198" id="aw"/><path fill="#3a414a" d="M693 0c-10-37-6-74-4-114C590-22 484 20 373 20 194 20 47-112 59-292c17-247 243-368 520-365l189 1c15-84 22-185-26-240-65-75-223-71-306-12-47 33-77 73-88 125l-182 1c29-208 221-321 452-321 215 0 378 144 342 364l-88 536c-5 65-10 126 7 186l-2 17H693zM280-192c64 73 206 62 294 10 51-30 96-69 133-120l39-223c-244-11-476 9-502 206-6 51 6 93 36 127" id="ax"/><path fill="#3a414a" d="M388-1083l-23 121c91-96 200-143 329-140 138 2 239 67 273 174 101-119 221-177 359-174 217 3 334 162 296 391L1503 0h-180l118-713c18-149-38-232-178-234-141-2-262 104-283 228L857 0H675l120-712c18-144-45-231-178-233-113-3-202 49-269 154L211 0H30l188-1082" id="ay"/><path fill="#3a414a" d="M1019-681c4 288-98 524-268 639-157 107-414 73-514-64l-97 522H-41l260-1498 164-1-20 121c89-96 196-144 321-140 224 6 332 183 335 421zM708-236c74-84 127-229 130-405s-61-298-216-305c-105-5-195 47-271 149l-91 519c41 96 114 145 219 148 90 2 166-34 229-106" id="az"/><path fill="#3a414a" d="M227 0H47l266-1536h181" id="aA"/><path fill="#3a414a" d="M267-488c-26 188 71 355 247 357 107 1 205-45 296-144l104 88C832-68 690 21 499 20 214 19 51-235 92-543c28-211 142-407 287-495 158-96 394-79 506 47 97 108 124 311 89 503H267zm509-376c-76-117-261-108-358-11-54 54-99 131-132 235l526 1c18-84 2-166-36-225" id="aB"/><g id="o"><use transform="matrix(0.007595486111111109,0,0,0.007595486111111109,0,0)" xlink:href="#av"/><use transform="matrix(0.007595486111111109,0,0,0.007595486111111109,8.651258680555554,0)" xlink:href="#aw"/><use transform="matrix(0.007595486111111109,0,0,0.007595486111111109,16.208767361111107,0)" xlink:href="#ax"/><use transform="matrix(0.007595486111111109,0,0,0.007595486111111109,24.49544270833333,0)" xlink:href="#ay"/><use transform="matrix(0.007595486111111109,0,0,0.007595486111111109,37.79513888888888,0)" xlink:href="#az"/><use transform="matrix(0.007595486111111109,0,0,0.007595486111111109,46.34006076388888,0)" xlink:href="#aA"/><use transform="matrix(0.007595486111111109,0,0,0.007595486111111109,50.07703993055554,0)" xlink:href="#aB"/></g><path fill="#3a414a" d="M604 0H422l214-1228-387 136 31-176 540-195h32" id="aC"/><path fill="#3a414a" d="M74-16C7-82 57-210 154-210c101 0 147 125 79 190-39 37-118 44-159 4zm153-883c-67-66-17-194 80-194 101 0 147 125 79 190-39 37-118 44-159 4" id="aD"/><g id="p"><use transform="matrix(0.007595486111111109,0,0,0.007595486111111109,0,0)" xlink:href="#aC"/><use transform="matrix(0.007595486111111109,0,0,0.007595486111111109,8.552517361111109,0)" xlink:href="#aD"/></g><path fill="#3a414a" d="M227 0H47l188-1082h180zm73-1444c36-38 112-44 152-6 39 38 38 117 0 155-36 37-114 43-153 5s-35-116 1-154" id="aE"/><path fill="#3a414a" d="M1010-139C844 23 564 76 352-47c-135-79-221-262-227-468-6-208 56-473 141-620 108-185 292-346 555-341 298 5 462 231 468 536 4 186-42 428-113 568-46 91-100 169-166 233zm71-537c55-299 23-636-269-636-217 0-335 130-412 300-78 172-143 579-19 755 52 73 124 112 221 115 126 3 231-42 314-136s134-228 165-398" id="aF"/><path fill="#3a414a" d="M234-422c-13 180 114 285 295 285s328-86 348-238c15-107-40-185-166-234-77-30-158-55-231-88-195-89-289-214-273-374 26-261 247-405 533-405 268 0 447 166 441 442l-189-1c15-178-89-280-260-283-175-3-317 91-335 244-12 100 47 175 183 226 75 28 154 52 224 85 188 87 278 216 261 386-26 266-254 397-544 397C245 20 38-139 46-423" id="aG"/><g id="q"><use transform="matrix(0.007595486111111109,0,0,0.007595486111111109,0,0)" xlink:href="#aE"/><use transform="matrix(0.007595486111111109,0,0,0.007595486111111109,3.7369791666666656,0)" xlink:href="#aF"/><use transform="matrix(0.007595486111111109,0,0,0.007595486111111109,14.188368055555552,0)" xlink:href="#aG"/></g><path fill="#3a414a" d="M174-98C35-272 67-655 174-841c85-148 201-262 404-262 121 0 213 47 278 132l104-565h181L875 0H710l19-116C595 47 309 72 174-98zm126-594c-73 205-75 556 166 556 105 0 198-48 279-158l86-500c-40-99-113-151-218-152-167-2-264 117-313 254" id="aH"/><path fill="#3a414a" d="M424-253l390-829h191L460 0H322L110-1082h178" id="aI"/><path fill="#3a414a" d="M704-917c-165-30-276 20-359 148L212 0H31l188-1082 175-1-27 126c100-123 200-175 357-132" id="aJ"/><path fill="#3a414a" d="M419-273l385-809h200L362 180C273 355 158 442 18 440c-25-1-61-7-109-18l16-150c230 41 293-145 371-295L109-1082h189" id="aK"/><g id="r"><use transform="matrix(0.007595486111111109,0,0,0.007595486111111109,0,0)" xlink:href="#aH"/><use transform="matrix(0.007595486111111109,0,0,0.007595486111111109,8.582899305555554,0)" xlink:href="#aB"/><use transform="matrix(0.007595486111111109,0,0,0.007595486111111109,16.64930555555555,0)" xlink:href="#aA"/><use transform="matrix(0.007595486111111109,0,0,0.007595486111111109,20.386284722222214,0)" xlink:href="#aE"/><use transform="matrix(0.007595486111111109,0,0,0.007595486111111109,24.12326388888888,0)" xlink:href="#aI"/><use transform="matrix(0.007595486111111109,0,0,0.007595486111111109,31.407335069444436,0)" xlink:href="#aB"/><use transform="matrix(0.007595486111111109,0,0,0.007595486111111109,39.473741319444436,0)" xlink:href="#aJ"/><use transform="matrix(0.007595486111111109,0,0,0.007595486111111109,44.790581597222214,0)" xlink:href="#aK"/></g><path fill="#3a414a" d="M119 0l164-939H116l25-143h166c16-160 49-300 144-383 101-88 236-115 397-77l-22 151c-96-22-191-11-250 47-61 60-74 158-88 262h224l-25 143H463L300 0H119" id="aL"/><path fill="#3a414a" d="M368-1032c145-90 364-94 497 4 125 92 200 279 173 497-26 214-136 393-288 484-146 88-361 90-494-7C135-143 64-314 82-523c19-226 133-414 286-509zm19 191c-89 104-138 255-123 450 11 144 88 261 232 261 228 0 333-194 361-401 31-227-34-407-232-420-93-6-173 35-238 110" id="aM"/><g id="s"><use transform="matrix(0.007595486111111109,0,0,0.007595486111111109,0,0)" xlink:href="#aL"/><use transform="matrix(0.007595486111111109,0,0,0.007595486111111109,5.316840277777777,0)" xlink:href="#aJ"/><use transform="matrix(0.007595486111111109,0,0,0.007595486111111109,10.345052083333332,0)" xlink:href="#aM"/><use transform="matrix(0.007595486111111109,0,0,0.007595486111111109,19.02669270833333,0)" xlink:href="#ay"/></g><path fill="#3a414a" d="M390-1083l-26 137c97-107 208-159 332-156 212 6 319 161 280 393L858 0H677l119-712c18-142-34-234-164-234-109 0-204 56-286 174L212 0H31l188-1082" id="aN"/><path fill="#3a414a" d="M509-1344l-46 262h197l-25 143H439L326-266c-10 74 15 129 84 126 22 0 51-3 88-10L484 1C371 33 244 25 190-60c-34-53-56-122-42-209l110-670H67l25-143h191l46-262h180" id="aO"/><path fill="#3a414a" d="M84-16c-67-66-17-194 80-194 101 0 147 125 79 190-39 37-118 44-159 4" id="aP"/><path fill="#3a414a" d="M231-333c-1 124 89 201 217 201 122 0 240-56 253-161 9-75-30-131-123-158l-188-55c-159-55-234-145-230-272 6-193 214-324 421-324 206 0 374 135 365 339l-180-1c4-110-81-185-192-185-115 0-223 63-235 164-8 63 29 112 115 137 217 64 438 103 427 341C871-88 677 18 442 20 228 22 41-122 50-334" id="aQ"/><path fill="#3a414a" d="M369-950c95-103 204-154 327-151 212 3 318 162 280 392L858 0H677l119-712c18-142-34-234-164-234-111 0-206 55-286 174L212 0H31l267-1536h181" id="aR"/><g id="t"><use transform="matrix(0.007595486111111109,0,0,0.007595486111111109,0,0)" xlink:href="#aN"/><use transform="matrix(0.007595486111111109,0,0,0.007595486111111109,8.400607638888888,0)" xlink:href="#aO"/><use transform="matrix(0.007595486111111109,0,0,0.007595486111111109,13.406032986111109,0)" xlink:href="#aL"/><use transform="matrix(0.007595486111111109,0,0,0.007595486111111109,18.722873263888886,0)" xlink:href="#aK"/><use transform="matrix(0.007595486111111109,0,0,0.007595486111111109,25.12586805555555,0)" xlink:href="#aP"/><use transform="matrix(0.007595486111111109,0,0,0.007595486111111109,29.17426215277777,0)" xlink:href="#aQ"/><use transform="matrix(0.007595486111111109,0,0,0.007595486111111109,37.02799479166666,0)" xlink:href="#aR"/></g><g id="u"><use transform="matrix(0.007595486111111109,0,0,0.007595486111111109,0,0)" xlink:href="#aI"/><use transform="matrix(0.007595486111111109,0,0,0.007595486111111109,7.382812499999998,0)" xlink:href="#aE"/><use transform="matrix(0.007595486111111109,0,0,0.007595486111111109,11.119791666666664,0)" xlink:href="#ax"/></g><path fill="#3a414a" d="M951-643H359L247 0H59l253-1456h876l-28 158H472l-86 498h593" id="aS"/><path fill="#3a414a" d="M1169-464C1124-185 892 29 575 20 229 9 88-284 127-654c28-268 101-490 247-638 124-125 272-187 447-184 282 5 447 200 452 489h-187c-12-217-93-327-273-332-126-3-229 46-315 141-126 140-178 379-192 636-12 223 75 401 278 405 238 4 341-122 403-324" id="aT"/><path fill="#3a414a" d="M549-1456L804-270l668-1186h247L1466 0h-187c65-395 139-782 219-1162L838 0H694L434-1185C379-783 318-386 247 0H59l253-1456h237" id="aU"/><g id="v"><use transform="matrix(0.007595486111111109,0,0,0.007595486111111109,0,0)" xlink:href="#aS"/><use transform="matrix(0.007595486111111109,0,0,0.007595486111111109,8.415798611111109,0)" xlink:href="#aT"/><use transform="matrix(0.007595486111111109,0,0,0.007595486111111109,18.312717013888886,0)" xlink:href="#aU"/></g><path fill="#3a414a" d="M71-384c10-124 84-235 222-332l114-76c-51-83-115-224-107-322 17-209 171-362 392-362 169 0 315 129 303 300-8 115-75 223-213 315l-147 98 249 381c61-90 99-187 114-290h161c-18 170-78 312-181 427L1135 0H933l-73-113C672 47 348 73 173-96 96-170 62-267 71-384zm412 253c89 0 184-36 284-113L496-668c-118 74-231 189-241 285-16 149 82 252 228 252zm198-1194c-112 0-191 102-203 204-8 68 37 171 76 232l153-103c71-53 111-115 118-185 10-86-58-148-144-148" id="aV"/><use transform="matrix(0.007595486111111109,0,0,0.007595486111111109,0,0)" xlink:href="#aV" id="w"/><path fill="#3a414a" d="M909-380H319L120 0H-81l791-1456h165L1163 0H978zM402-538h479l-121-679" id="aW"/><path fill="#3a414a" d="M798-1455c280-6 475 162 452 437-24 282-246 450-558 449l-346-1L247 0H59l253-1456zM373-727l324 1c202 2 344-111 366-291 21-169-84-279-246-280l-345-1" id="aX"/><path fill="#3a414a" d="M1146 0H964L444-1130 248 0H59l253-1456h182l521 1135 197-1135h187" id="aY"/><g id="x"><use transform="matrix(0.007595486111111109,0,0,0.007595486111111109,0,0)" xlink:href="#aW"/><use transform="matrix(0.007595486111111109,0,0,0.007595486111111109,9.919704861111109,0)" xlink:href="#aX"/><use transform="matrix(0.007595486111111109,0,0,0.007595486111111109,19.51280381944444,0)" xlink:href="#aY"/><use transform="matrix(0.007595486111111109,0,0,0.007595486111111109,30.34396701388888,0)" xlink:href="#aQ"/></g><path fill="#3a414a" d="M950 0H23l22-141c212-206 425-411 635-619 113-113 174-217 187-312 19-144-68-249-201-253-185-5-306 126-326 297l-179 1c32-271 217-448 512-449 226-1 401 153 379 383-12 128-84 264-221 404-181 185-374 358-560 538h703" id="aZ"/><g id="y"><use transform="matrix(0.007595486111111109,0,0,0.007595486111111109,0,0)" xlink:href="#aZ"/><use transform="matrix(0.007595486111111109,0,0,0.007595486111111109,8.552517361111109,0)" xlink:href="#aD"/></g><g id="z"><use transform="matrix(0.007595486111111109,0,0,0.007595486111111109,0,0)" xlink:href="#aL"/><use transform="matrix(0.007595486111111109,0,0,0.007595486111111109,5.316840277777777,0)" xlink:href="#aJ"/><use transform="matrix(0.007595486111111109,0,0,0.007595486111111109,10.345052083333332,0)" xlink:href="#aM"/><use transform="matrix(0.007595486111111109,0,0,0.007595486111111109,19.02669270833333,0)" xlink:href="#ay"/></g><path fill="#3a414a" d="M500-543H25l27-151h475" id="ba"/><g id="A"><use transform="matrix(0.007595486111111109,0,0,0.007595486111111109,0,0)" xlink:href="#aQ"/><use transform="matrix(0.007595486111111109,0,0,0.007595486111111109,7.853732638888887,0)" xlink:href="#aB"/><use transform="matrix(0.007595486111111109,0,0,0.007595486111111109,15.920138888888886,0)" xlink:href="#aA"/><use transform="matrix(0.007595486111111109,0,0,0.007595486111111109,19.65711805555555,0)" xlink:href="#aL"/><use transform="matrix(0.007595486111111109,0,0,0.007595486111111109,24.97395833333333,0)" xlink:href="#ba"/><use transform="matrix(0.007595486111111109,0,0,0.007595486111111109,29.21223958333333,0)" xlink:href="#aR"/><use transform="matrix(0.007595486111111109,0,0,0.007595486111111109,37.59765624999999,0)" xlink:href="#aM"/><use transform="matrix(0.007595486111111109,0,0,0.007595486111111109,46.27929687499999,0)" xlink:href="#aQ"/><use transform="matrix(0.007595486111111109,0,0,0.007595486111111109,54.13302951388888,0)" xlink:href="#aO"/><use transform="matrix(0.007595486111111109,0,0,0.007595486111111109,59.1384548611111,0)" xlink:href="#aB"/><use transform="matrix(0.007595486111111109,0,0,0.007595486111111109,67.2048611111111,0)" xlink:href="#aH"/></g><g id="B"><use transform="matrix(0.007595486111111109,0,0,0.007595486111111109,0,0)" xlink:href="#aQ"/><use transform="matrix(0.007595486111111109,0,0,0.007595486111111109,7.853732638888887,0)" xlink:href="#aB"/><use transform="matrix(0.007595486111111109,0,0,0.007595486111111109,15.920138888888886,0)" xlink:href="#aJ"/><use transform="matrix(0.007595486111111109,0,0,0.007595486111111109,21.236979166666664,0)" xlink:href="#aI"/><use transform="matrix(0.007595486111111109,0,0,0.007595486111111109,28.52105034722222,0)" xlink:href="#aB"/><use transform="matrix(0.007595486111111109,0,0,0.007595486111111109,36.58745659722222,0)" xlink:href="#aJ"/></g><g id="C"><use transform="matrix(0.007595486111111109,0,0,0.007595486111111109,0,0)" xlink:href="#aI"/><use transform="matrix(0.007595486111111109,0,0,0.007595486111111109,7.382812499999998,0)" xlink:href="#aE"/><use transform="matrix(0.007595486111111109,0,0,0.007595486111111109,11.119791666666664,0)" xlink:href="#ax"/></g><g id="D"><use transform="matrix(0.007595486111111109,0,0,0.007595486111111109,0,0)" xlink:href="#az"/><use transform="matrix(0.007595486111111109,0,0,0.007595486111111109,8.544921874999998,0)" xlink:href="#aM"/><use transform="matrix(0.007595486111111109,0,0,0.007595486111111109,17.226562499999996,0)" xlink:href="#aA"/><use transform="matrix(0.007595486111111109,0,0,0.007595486111111109,20.96354166666666,0)" xlink:href="#aA"/></g><path fill="#3a414a" d="M722-100C578 49 308 69 177-95 74-224 52-458 108-662c65-236 193-441 477-441 122 0 215 46 279 131l33-110h167L804 416H624zM390-846c-70 86-125 231-130 408-5 173 58 303 212 308 102 3 192-46 271-146l94-532c-72-181-328-183-447-38" id="bb"/><path fill="#3a414a" d="M718-107C633-20 526 23 395 20 181 15 71-151 110-383l116-699h181L290-380c-17 133 23 239 147 243 129 4 229-48 300-157l136-788h181L866 0H695" id="bc"/><g id="E"><use transform="matrix(0.007595486111111109,0,0,0.007595486111111109,0,0)" xlink:href="#aJ"/><use transform="matrix(0.007595486111111109,0,0,0.007595486111111109,5.035807291666666,0)" xlink:href="#aB"/><use transform="matrix(0.007595486111111109,0,0,0.007595486111111109,13.102213541666664,0)" xlink:href="#bb"/><use transform="matrix(0.007595486111111109,0,0,0.007595486111111109,21.753472222222218,0)" xlink:href="#bc"/><use transform="matrix(0.007595486111111109,0,0,0.007595486111111109,30.146484374999993,0)" xlink:href="#aB"/><use transform="matrix(0.007595486111111109,0,0,0.007595486111111109,38.21289062499999,0)" xlink:href="#aQ"/><use transform="matrix(0.007595486111111109,0,0,0.007595486111111109,46.06662326388888,0)" xlink:href="#aO"/><use transform="matrix(0.007595486111111109,0,0,0.007595486111111109,51.0720486111111,0)" xlink:href="#aQ"/></g><g id="F"><use transform="matrix(0.04320987654320987,0,0,0.04320987654320987,0,0)" xlink:href="#ap"/><use transform="matrix(0.04320987654320987,0,0,0.04320987654320987,8.641975308641973,0)" xlink:href="#ao"/></g><path fill="#3a414a" d="M16-82v-28h88v28H16" id="bd"/><path fill="#3a414a" d="M100-194c62-1 85 37 85 99 1 63-27 99-86 99S16-35 15-95c0-66 28-99 85-99zM99-20c44 1 53-31 53-75 0-43-8-75-51-75s-53 32-53 75 10 74 51 75" id="be"/><path fill="#3a414a" d="M85-194c31 0 48 13 60 33l-1-100h32l1 261h-30c-2-10 0-23-3-31C134-8 116 4 85 4 32 4 16-35 15-94c0-66 23-100 70-100zm9 24c-40 0-46 34-46 75 0 40 6 74 45 74 42 0 51-32 51-76 0-42-9-74-50-73" id="bf"/><g id="G"><use transform="matrix(0.05555555555555555,0,0,0.05555555555555555,0,0)" xlink:href="#ar"/><use transform="matrix(0.05555555555555555,0,0,0.05555555555555555,13.333333333333332,0)" xlink:href="#R"/><use transform="matrix(0.05555555555555555,0,0,0.05555555555555555,24.444444444444443,0)" xlink:href="#ah"/><use transform="matrix(0.05555555555555555,0,0,0.05555555555555555,28.833333333333332,0)" xlink:href="#ak"/><use transform="matrix(0.05555555555555555,0,0,0.05555555555555555,34.388888888888886,0)" xlink:href="#bd"/><use transform="matrix(0.05555555555555555,0,0,0.05555555555555555,41,0)" xlink:href="#ai"/><use transform="matrix(0.05555555555555555,0,0,0.05555555555555555,52.111111111111114,0)" xlink:href="#be"/><use transform="matrix(0.05555555555555555,0,0,0.05555555555555555,63.22222222222223,0)" xlink:href="#U"/><use transform="matrix(0.05555555555555555,0,0,0.05555555555555555,73.22222222222223,0)" xlink:href="#aj"/><use transform="matrix(0.05555555555555555,0,0,0.05555555555555555,78.77777777777779,0)" xlink:href="#R"/><use transform="matrix(0.05555555555555555,0,0,0.05555555555555555,89.8888888888889,0)" xlink:href="#bf"/></g><g id="H"><use transform="matrix(0.05555555555555555,0,0,0.05555555555555555,0,0)" xlink:href="#Z"/><use transform="matrix(0.05555555555555555,0,0,0.05555555555555555,11.11111111111111,0)" xlink:href="#aj"/><use transform="matrix(0.05555555555555555,0,0,0.05555555555555555,16.666666666666664,0)" xlink:href="#ak"/><use transform="matrix(0.05555555555555555,0,0,0.05555555555555555,22.22222222222222,0)" xlink:href="#al"/></g><path fill="#333" d="M80-196l47-18 7 23-49 13 32 44-20 13-27-46-27 45-21-12 33-44-49-13 8-23 47 19-2-53h23" id="bg"/><g id="I"><use transform="matrix(0.04320987654320987,0,0,0.04320987654320987,0,0)" xlink:href="#an"/><use transform="matrix(0.04320987654320987,0,0,0.04320987654320987,8.641975308641973,0)" xlink:href="#bg"/></g><path fill="#333" d="M238-179c0 84-86 86-175 82L45 0H11l48-248c82 0 179-12 179 69zm-34 1c0-53-64-42-116-43l-19 98c63 0 135 9 135-55" id="bh"/><path fill="#333" d="M30-147c31-64 166-65 159 27C183-49 158 1 86 4 9 8 1-88 30-147zM88-20c53 0 68-48 68-100 0-31-11-51-44-50-52 1-68 46-68 97 0 32 13 53 44 53" id="bi"/><path fill="#333" d="M6 0l50-261h32L37 0H6" id="bj"/><g id="J"><use transform="matrix(0.04938271604938272,0,0,0.04938271604938272,0,0)" xlink:href="#bh"/><use transform="matrix(0.04938271604938272,0,0,0.04938271604938272,11.851851851851853,0)" xlink:href="#bi"/><use transform="matrix(0.04938271604938272,0,0,0.04938271604938272,21.7283950617284,0)" xlink:href="#bj"/><use transform="matrix(0.04938271604938272,0,0,0.04938271604938272,25.629629629629633,0)" xlink:href="#bj"/></g><path fill="#333" d="M55-144c13 50 104 24 104 88C159 21 15 23 1-39l26-10c6 40 102 42 102-4-13-50-104-23-104-87 0-71 143-71 148-8l-29 4c-5-35-85-37-89 0" id="bk"/><path fill="#333" d="M50-231l6-30h32l-6 30H50zM6 0l37-190h31L37 0H6" id="bl"/><path fill="#333" d="M67-158c22-48 132-52 116 29L158 0h-32l25-140c3-38-53-32-70-12C52-117 51-52 38 0H6l36-190h30" id="bm"/><path fill="#333" d="M103-194c29 0 47 14 56 36 2-11 5-23 8-32h30L160-5C157 61 82 97 21 62 9 55 4 45 1 30l28-7c7 42 83 31 92-3 4-16 9-38 13-55-13 20-29 36-62 36-40 0-60-25-60-64 0-71 23-131 91-131zm4 24c-53 0-58 54-61 104-2 27 10 44 36 44 49 0 65-50 67-102 1-29-15-46-42-46" id="bn"/><path fill="#333" d="M111-194c62-3 86 47 72 106H45c-7 38 6 69 45 68 27-1 43-14 53-32l24 11C152-15 129 4 87 4 38 3 12-23 12-71c0-70 32-119 99-123zm44 81c14-66-71-72-95-28-4 8-8 17-11 28h106" id="bo"/><g id="K"><use transform="matrix(0.04938271604938272,0,0,0.04938271604938272,0,0)" xlink:href="#bk"/><use transform="matrix(0.04938271604938272,0,0,0.04938271604938272,8.88888888888889,0)" xlink:href="#bl"/><use transform="matrix(0.04938271604938272,0,0,0.04938271604938272,12.790123456790125,0)" xlink:href="#bm"/><use transform="matrix(0.04938271604938272,0,0,0.04938271604938272,22.666666666666668,0)" xlink:href="#bn"/><use transform="matrix(0.04938271604938272,0,0,0.04938271604938272,32.543209876543216,0)" xlink:href="#bj"/><use transform="matrix(0.04938271604938272,0,0,0.04938271604938272,36.44444444444445,0)" xlink:href="#bo"/></g><path fill="#333" d="M248-111c6-24 9-61-24-58-72 9-57 108-77 169h-31l26-142c3-37-50-30-64-10C52-115 50-51 37 0H6l36-190h30c-1 10-6 24-4 32 13-43 101-52 105 5 13-22 29-41 61-41 90 0 28 129 23 194h-31" id="bp"/><path fill="#333" d="M165-48c-4 18 1 34 23 27l-3 20c-29 8-62 0-52-35h-2C116-14 99 4 63 4 30 4 8-16 8-49c0-68 71-67 138-67 10-26 0-56-31-54-26 1-42 9-47 31l-32-5c8-67 160-71 144 15-5 28-9 54-15 81zM42-50c3 52 80 24 89-6 7-12 7-24 11-38-47 1-103-4-100 44" id="bq"/><g id="L"><use transform="matrix(0.04938271604938272,0,0,0.04938271604938272,0,0)" xlink:href="#bp"/><use transform="matrix(0.04938271604938272,0,0,0.04938271604938272,14.765432098765434,0)" xlink:href="#bo"/><use transform="matrix(0.04938271604938272,0,0,0.04938271604938272,24.641975308641978,0)" xlink:href="#bk"/><use transform="matrix(0.04938271604938272,0,0,0.04938271604938272,33.53086419753087,0)" xlink:href="#bk"/><use transform="matrix(0.04938271604938272,0,0,0.04938271604938272,42.41975308641976,0)" xlink:href="#bq"/><use transform="matrix(0.04938271604938272,0,0,0.04938271604938272,52.2962962962963,0)" xlink:href="#bn"/><use transform="matrix(0.04938271604938272,0,0,0.04938271604938272,62.17283950617284,0)" xlink:href="#bo"/></g><path fill="#3a414a" d="M290-255c-2 267 70 489 208 613l-45 112C190 297 64-141 133-587c71-464 279-879 632-1057l27 124C468-1284 295-807 290-255" id="br"/><g id="M"><use transform="matrix(0.007595486111111109,0,0,0.007595486111111109,0,0)" xlink:href="#br"/><use transform="matrix(0.007595486111111109,0,0,0.007595486111111109,5.2332899305555545,0)" xlink:href="#az"/><use transform="matrix(0.007595486111111109,0,0,0.007595486111111109,13.778211805555554,0)" xlink:href="#aM"/><use transform="matrix(0.007595486111111109,0,0,0.007595486111111109,22.45985243055555,0)" xlink:href="#aA"/><use transform="matrix(0.007595486111111109,0,0,0.007595486111111109,26.196831597222214,0)" xlink:href="#aA"/></g><path fill="#3a414a" d="M532-1134C641-586 454-58 200 244 115 345 19 419-85 471l-28-115C116 184 268-92 345-473c31-153 45-301 44-443-3-286-73-491-208-615l47-112c154 107 260 289 304 509" id="bs"/><g id="N"><use transform="matrix(0.007595486111111109,0,0,0.007595486111111109,0,0)" xlink:href="#aJ"/><use transform="matrix(0.007595486111111109,0,0,0.007595486111111109,5.035807291666666,0)" xlink:href="#aB"/><use transform="matrix(0.007595486111111109,0,0,0.007595486111111109,13.102213541666664,0)" xlink:href="#bb"/><use transform="matrix(0.007595486111111109,0,0,0.007595486111111109,21.753472222222218,0)" xlink:href="#bc"/><use transform="matrix(0.007595486111111109,0,0,0.007595486111111109,30.146484374999993,0)" xlink:href="#aB"/><use transform="matrix(0.007595486111111109,0,0,0.007595486111111109,38.21289062499999,0)" xlink:href="#aQ"/><use transform="matrix(0.007595486111111109,0,0,0.007595486111111109,46.06662326388888,0)" xlink:href="#aO"/><use transform="matrix(0.007595486111111109,0,0,0.007595486111111109,51.0720486111111,0)" xlink:href="#bs"/></g></defs></g></svg>