<svg xmlns="http://www.w3.org/2000/svg" xmlns:xlink="http://www.w3.org/1999/xlink" xmlns:lucid="lucid" width="421" height="406.49"><g transform="translate(60.49999999999996 -207.59523809523813)" lucid:page-tab-id="ZkwTIcdYHKvh"><path d="M-40 306.3a6 6 0 0 1 6-6h148a6 6 0 0 1 6 6v44.28a6 6 0 0 1-6 6H-34a6 6 0 0 1-6-6z" stroke="#3a414a" fill="#fff"/><use xlink:href="#a" transform="matrix(1,0,0,1,-34.99999999999996,305.2877251842369) translate(48.97222222222222 18.9375)"/><use xlink:href="#b" transform="matrix(1,0,0,1,-34.99999999999996,305.2877251842369) translate(34.52777777777778 42.9375)"/><path d="M121 325.77h.28l.76.07.75.1.72.14.73.2.72.22.72.27.73.32.75.37.76.44.8.53.82.6.86.72.92.85.97 1 1.07 1.23 1.16 1.5 1.3 1.87 1.46 2.4 1.72 3.23 2.15 4.6 3.02 7.52 14.63 41.68 2.14 4.6 1.74 3.22 1.48 2.42 1.3 1.87.43.56" stroke="#3a414a" stroke-linejoin="round" fill="none"/><path d="M121.03 325.27l-.03 1-.5-.02v-1z" stroke="#3a414a" stroke-width=".05" fill="#3a414a"/><path d="M178.1 415.5l-14.64-3.26 4.7-8z" stroke="#3a414a" fill="#3a414a"/><path d="M-40 380.27a6 6 0 0 1 6-6h148a6 6 0 0 1 6 6v44.3a6 6 0 0 1-6 6H-34a6 6 0 0 1-6-6z" stroke="#3a414a" fill="#fff"/><use xlink:href="#c" transform="matrix(1,0,0,1,-34.99999999999996,379.2742020234041) translate(21.194444444444443 18.9375)"/><use xlink:href="#d" transform="matrix(1,0,0,1,-34.99999999999996,379.2742020234041) translate(34.52777777777778 42.9375)"/><path d="M-40 234.1a6 6 0 0 1 6-6h148a6 6 0 0 1 6 6v44.28a6 6 0 0 1-6 6H-34a6 6 0 0 1-6-6z" stroke="#3a414a" fill="#fff"/><use xlink:href="#e" transform="matrix(1,0,0,1,-34.99999999999996,233.09523809523813) translate(6.833333333333343 18.9375)"/><use xlink:href="#f" transform="matrix(1,0,0,1,-34.99999999999996,233.09523809523813) translate(62.22222222222223 18.9375)"/><use xlink:href="#g" transform="matrix(1,0,0,1,-34.99999999999996,233.09523809523813) translate(40.666666666666664 42.9375)"/><path d="M180 407.67a6 6 0 0 1 6-6h148a6 6 0 0 1 6 6v48a6 6 0 0 1-6 6H186a6 6 0 0 1-6-6z" stroke="#3a414a" fill="#fff"/><use xlink:href="#h" transform="matrix(1,0,0,1,184.9999999999999,406.66666666666674) translate(51.638888888888886 28.75)"/><path d="M121 256.26l.68.02 1.13.12 1.1.18 1.07.26 1.06.33 1.06.42 1.05.5 1.1.6 1.1.73 1.2.88 1.23 1.08 1.34 1.32 1.46 1.67 1.65 2.15 1.93 2.9 2.4 4.2 3.48 7.26 13.67 31.73 2.4 4.2 1.93 2.92 1.65 2.15.9 1.02" stroke="#3a414a" stroke-linejoin="round" fill="none"/><path d="M121.03 255.76l-.03 1-.5-.02v-1z" stroke="#3a414a" stroke-width=".05" fill="#3a414a"/><path d="M178.32 329.27l-14.83-2.25 4.14-8.28z" stroke="#3a414a" fill="#3a414a"/><path d="M260 400.67v-23.8" stroke="#3a414a" fill="none"/><path d="M260.5 401.17h-1v-.52h1z" stroke="#3a414a" stroke-width=".05" fill="#3a414a"/><path d="M260 362.12l4.63 14.26h-9.26z" stroke="#3a414a" fill="#3a414a"/><path d="M121 402.44l3 .12 3.05.4 2.74.58 2.53.78 2.44.97 2.42 1.2 2.53 1.58 2.9 2.15 4.35 3.86 10.4 9.76 2.9 2.15 2.53 1.57.9.45" stroke="#3a414a" stroke-linejoin="round" fill="none"/><path d="M121.03 401.94l-.04 1-.5-.02v-1z" stroke="#3a414a" stroke-width=".05" fill="#3a414a"/><path d="M177.92 431.3l-14.94 1.3 2.1-9.02z" stroke="#3a414a" fill="#3a414a"/><path d="M320 434.75c0 9.28-7.9 16.8-17.63 16.8-9.74 0-17.63-7.52-17.63-16.8 0-9.27 7.9-16.8 17.63-16.8 9.74 0 17.63 7.53 17.63 16.8z" stroke="#979ea8" fill="#dfe3e8"/><use xlink:href="#i" transform="matrix(1,0,0,1,289.73738967807867,422.9627649793282) translate(8.679012345679013 15.444444444444443)"/><path d="M180.26 306a6 6 0 0 1 6-6H334a6 6 0 0 1 6 6v48a6 6 0 0 1-6 6H186.26a6 6 0 0 1-6-6z" stroke="#3a414a" fill="#fff"/><use xlink:href="#j" transform="matrix(1,0,0,1,185.26255078062718,305) translate(58.888888888888886 28.75)"/><path d="M320 330c0 9.27-7.9 16.8-17.63 16.8-9.74 0-17.63-7.53-17.63-16.8s7.9-16.8 17.63-16.8c9.74 0 17.63 7.53 17.63 16.8z" stroke="#979ea8" fill="#dfe3e8"/><use xlink:href="#k" transform="matrix(1,0,0,1,289.73738967807867,318.20828079908506) translate(8.679012345679013 15.444444444444443)"/><path d="M125 343.2c0 9.28-7.9 16.8-17.63 16.8-9.74 0-17.63-7.52-17.63-16.8 0-9.27 7.9-16.78 17.63-16.78 9.74 0 17.63 7.5 17.63 16.8z" stroke="#979ea8" fill="#dfe3e8"/><use xlink:href="#l" transform="matrix(1,0,0,1,94.73956081842425,331.41656159817023) translate(4.358024691358027 15.444444444444443)"/><path d="M125 276.8c0 9.27-7.9 16.78-17.63 16.78-9.74 0-17.63-7.5-17.63-16.8 0-9.26 7.9-16.78 17.63-16.78 9.74 0 17.63 7.52 17.63 16.8z" stroke="#979ea8" fill="#dfe3e8"/><use xlink:href="#m" transform="matrix(1,0,0,1,94.73956081842425,265) translate(4.358024691358027 15.444444444444443)"/><path d="M-40 452.97a6 6 0 0 1 6-6h148a6 6 0 0 1 6 6v50.47a6 6 0 0 1-6 6H-34a6 6 0 0 1-6-6z" stroke="#3a414a" fill="#fff"/><use xlink:href="#c" transform="matrix(1,0,0,1,-34.99999999999996,451.9731876072162) translate(21.194444444444443 19.3125)"/><use xlink:href="#n" transform="matrix(1,0,0,1,-34.99999999999996,451.9731876072162) translate(27.888888888888893 43.3125)"/><use xlink:href="#o" transform="matrix(1,0,0,1,-34.99999999999996,451.9731876072162) translate(87.72222222222223 43.3125)"/><path d="M121 478.18l2.23-.1 2.47-.3 2.26-.5 2.14-.64 2.07-.83 2.05-1.03 2.1-1.28 2.2-1.65 2.5-2.2 3.2-3.35 14.75-17.6 2.5-2.2 2.22-1.65.3-.2" stroke="#3a414a" stroke-linejoin="round" fill="none"/><path d="M121.03 478.68l-.53.02v-1l.5-.02z" stroke="#3a414a" stroke-width=".05" fill="#3a414a"/><path d="M177.95 440.6l-12.4 8.43-2.6-8.9z" stroke="#3a414a" fill="#3a414a"/><path d="M125 418.46c0 9.27-7.9 16.8-17.63 16.8-9.74 0-17.63-7.53-17.63-16.8s7.9-16.8 17.63-16.8c9.74 0 17.63 7.52 17.63 16.8z" stroke="#979ea8" fill="#dfe3e8"/><use xlink:href="#p" transform="matrix(1,0,0,1,94.73956081842425,406.66666666666674) translate(4.358024691358027 15.444444444444443)"/><path d="M125 496.8c0 9.27-7.9 16.78-17.63 16.78-9.74 0-17.63-7.5-17.63-16.8 0-9.26 7.9-16.78 17.63-16.78 9.74 0 17.63 7.52 17.63 16.8z" stroke="#979ea8" fill="#dfe3e8"/><use xlink:href="#q" transform="matrix(1,0,0,1,94.73956081842425,485) translate(4.358024691358027 15.444444444444443)"/><path d="M-40 536.05a6 6 0 0 1 6-6h148a6 6 0 0 1 6 6v39.63a6 6 0 0 1-6 6H-34a6 6 0 0 1-6-6z" stroke="#3a414a" fill="#fff"/><use xlink:href="#r" transform="matrix(1,0,0,1,-34.99999999999996,535.0510826800145) translate(24.499999999999993 16)"/><use xlink:href="#s" transform="matrix(1,0,0,1,-34.99999999999996,535.0510826800145) translate(28.388888888888886 40)"/><use xlink:href="#t" transform="matrix(1,0,0,1,-34.99999999999996,535.0510826800145) translate(66.16666666666666 40)"/><path d="M125 576.8c0 9.27-7.9 16.78-17.63 16.78-9.74 0-17.63-7.5-17.63-16.8 0-9.26 7.9-16.78 17.63-16.78 9.74 0 17.63 7.52 17.63 16.8z" stroke="#979ea8" fill="#dfe3e8"/><g><use xlink:href="#u" transform="matrix(1,0,0,1,94.73956081842425,565) translate(5.654320987654323 15.444444444444443)"/></g><path d="M121 555.85h.1l.57-.04.57-.06.56-.1.56-.12.55-.15.57-.17.56-.22.57-.24.58-.28.6-.33.6-.37.62-.43.66-.5.68-.56.72-.66.76-.76.82-.9.88-1.1.96-1.3 1.06-1.57 1.18-1.97 1.35-2.5 1.58-3.33 1.93-4.62 2.6-7.14 5.16-16.9 8.5-28.63 2.58-7.14 1.93-4.62 1.58-3.3 1.35-2.52 1.2-1.97.86-1.3" stroke="#3a414a" stroke-linejoin="round" fill="none"/><path d="M121.03 556.35h-.53v-1h.5z" stroke="#3a414a" stroke-width=".05" fill="#3a414a"/><path d="M178.15 452.3l-9.42 11.68-5.06-7.76z" stroke="#3a414a" fill="#3a414a"/><defs><path fill="#3a414a" d="M197 0v-115H63V0H30v-248h33v105h134v-105h34V0h-34" id="v"/><path fill="#3a414a" d="M127-220V0H93v-220H8v-28h204v28h-85" id="w"/><path fill="#3a414a" d="M30-248c87 1 191-15 191 75 0 78-77 80-158 76V0H30v-248zm33 125c57 0 124 11 124-50 0-59-68-47-124-48v98" id="x"/><g id="a"><use transform="matrix(0.05555555555555555,0,0,0.05555555555555555,0,0)" xlink:href="#v"/><use transform="matrix(0.05555555555555555,0,0,0.05555555555555555,14.388888888888888,0)" xlink:href="#w"/><use transform="matrix(0.05555555555555555,0,0,0.05555555555555555,26.555555555555554,0)" xlink:href="#w"/><use transform="matrix(0.05555555555555555,0,0,0.05555555555555555,38.72222222222222,0)" xlink:href="#x"/></g><path fill="#3a414a" d="M115-194c55 1 70 41 70 98S169 2 115 4C84 4 66-9 55-30l1 105H24l-1-265h31l2 30c10-21 28-34 59-34zm-8 174c40 0 45-34 45-75s-6-73-45-74c-42 0-51 32-51 76 0 43 10 73 51 73" id="y"/><path fill="#3a414a" d="M84 4C-5 8 30-112 23-190h32v120c0 31 7 50 39 49 72-2 45-101 50-169h31l1 190h-30c-1-10 1-25-2-33-11 22-28 36-60 37" id="z"/><path fill="#3a414a" d="M115-194c53 0 69 39 70 98 0 66-23 100-70 100C84 3 66-7 56-30L54 0H23l1-261h32v101c10-23 28-34 59-34zm-8 174c40 0 45-34 45-75 0-40-5-75-45-74-42 0-51 32-51 76 0 43 10 73 51 73" id="A"/><path fill="#3a414a" d="M24 0v-261h32V0H24" id="B"/><path fill="#3a414a" d="M24-231v-30h32v30H24zM24 0v-190h32V0H24" id="C"/><path fill="#3a414a" d="M135-143c-3-34-86-38-87 0 15 53 115 12 119 90S17 21 10-45l28-5c4 36 97 45 98 0-10-56-113-15-118-90-4-57 82-63 122-42 12 7 21 19 24 35" id="D"/><path fill="#3a414a" d="M106-169C34-169 62-67 57 0H25v-261h32l-1 103c12-21 28-36 61-36 89 0 53 116 60 194h-32v-121c2-32-8-49-39-48" id="E"/><path fill="#3a414a" d="M100-194c63 0 86 42 84 106H49c0 40 14 67 53 68 26 1 43-12 49-29l28 8c-11 28-37 45-77 45C44 4 14-33 15-96c1-61 26-98 85-98zm52 81c6-60-76-77-97-28-3 7-6 17-6 28h103" id="F"/><path fill="#3a414a" d="M114-163C36-179 61-72 57 0H25l-1-190h30c1 12-1 29 2 39 6-27 23-49 58-41v29" id="G"/><g id="b"><use transform="matrix(0.05555555555555555,0,0,0.05555555555555555,0,0)" xlink:href="#y"/><use transform="matrix(0.05555555555555555,0,0,0.05555555555555555,11.11111111111111,0)" xlink:href="#z"/><use transform="matrix(0.05555555555555555,0,0,0.05555555555555555,22.22222222222222,0)" xlink:href="#A"/><use transform="matrix(0.05555555555555555,0,0,0.05555555555555555,33.33333333333333,0)" xlink:href="#B"/><use transform="matrix(0.05555555555555555,0,0,0.05555555555555555,37.722222222222214,0)" xlink:href="#C"/><use transform="matrix(0.05555555555555555,0,0,0.05555555555555555,42.1111111111111,0)" xlink:href="#D"/><use transform="matrix(0.05555555555555555,0,0,0.05555555555555555,52.1111111111111,0)" xlink:href="#E"/><use transform="matrix(0.05555555555555555,0,0,0.05555555555555555,63.22222222222222,0)" xlink:href="#F"/><use transform="matrix(0.05555555555555555,0,0,0.05555555555555555,74.33333333333333,0)" xlink:href="#G"/></g><path fill="#3a414a" d="M232-93c-1 65-40 97-104 97C67 4 28-28 28-90v-158h33c8 89-33 224 67 224 102 0 64-133 71-224h33v155" id="H"/><path fill="#3a414a" d="M117-194c89-4 53 116 60 194h-32v-121c0-31-8-49-39-48C34-167 62-67 57 0H25l-1-190h30c1 10-1 24 2 32 11-22 29-35 61-36" id="I"/><path fill="#3a414a" d="M101-234c-31-9-42 10-38 44h38v23H63V0H32v-167H5v-23h27c-7-52 17-82 69-68v24" id="J"/><path fill="#3a414a" d="M85-194c31 0 48 13 60 33l-1-100h32l1 261h-30c-2-10 0-23-3-31C134-8 116 4 85 4 32 4 16-35 15-94c0-66 23-100 70-100zm9 24c-40 0-46 34-46 75 0 40 6 74 45 74 42 0 51-32 51-76 0-42-9-74-50-73" id="K"/><g id="c"><use transform="matrix(0.05555555555555555,0,0,0.05555555555555555,0,0)" xlink:href="#H"/><use transform="matrix(0.05555555555555555,0,0,0.05555555555555555,14.388888888888888,0)" xlink:href="#I"/><use transform="matrix(0.05555555555555555,0,0,0.05555555555555555,25.5,0)" xlink:href="#C"/><use transform="matrix(0.05555555555555555,0,0,0.05555555555555555,29.888888888888886,0)" xlink:href="#J"/><use transform="matrix(0.05555555555555555,0,0,0.05555555555555555,35.44444444444444,0)" xlink:href="#C"/><use transform="matrix(0.05555555555555555,0,0,0.05555555555555555,39.83333333333333,0)" xlink:href="#F"/><use transform="matrix(0.05555555555555555,0,0,0.05555555555555555,50.94444444444444,0)" xlink:href="#K"/><use transform="matrix(0.05555555555555555,0,0,0.05555555555555555,62.05555555555555,0)" xlink:href="#x"/><use transform="matrix(0.05555555555555555,0,0,0.05555555555555555,75.38888888888889,0)" xlink:href="#z"/><use transform="matrix(0.05555555555555555,0,0,0.05555555555555555,86.5,0)" xlink:href="#D"/><use transform="matrix(0.05555555555555555,0,0,0.05555555555555555,96.5,0)" xlink:href="#E"/></g><g id="d"><use transform="matrix(0.05555555555555555,0,0,0.05555555555555555,0,0)" xlink:href="#y"/><use transform="matrix(0.05555555555555555,0,0,0.05555555555555555,11.11111111111111,0)" xlink:href="#z"/><use transform="matrix(0.05555555555555555,0,0,0.05555555555555555,22.22222222222222,0)" xlink:href="#A"/><use transform="matrix(0.05555555555555555,0,0,0.05555555555555555,33.33333333333333,0)" xlink:href="#B"/><use transform="matrix(0.05555555555555555,0,0,0.05555555555555555,37.722222222222214,0)" xlink:href="#C"/><use transform="matrix(0.05555555555555555,0,0,0.05555555555555555,42.1111111111111,0)" xlink:href="#D"/><use transform="matrix(0.05555555555555555,0,0,0.05555555555555555,52.1111111111111,0)" xlink:href="#E"/><use transform="matrix(0.05555555555555555,0,0,0.05555555555555555,63.22222222222222,0)" xlink:href="#F"/><use transform="matrix(0.05555555555555555,0,0,0.05555555555555555,74.33333333333333,0)" xlink:href="#G"/></g><path fill="#3a414a" d="M30 0v-248h187v28H63v79h144v27H63v87h162V0H30" id="L"/><path fill="#3a414a" d="M210-169c-67 3-38 105-44 169h-31v-121c0-29-5-50-35-48C34-165 62-65 56 0H25l-1-190h30c1 10-1 24 2 32 10-44 99-50 107 0 11-21 27-35 58-36 85-2 47 119 55 194h-31v-121c0-29-5-49-35-48" id="M"/><path fill="#3a414a" d="M141-36C126-15 110 5 73 4 37 3 15-17 15-53c-1-64 63-63 125-63 3-35-9-54-41-54-24 1-41 7-42 31l-33-3c5-37 33-52 76-52 45 0 72 20 72 64v82c-1 20 7 32 28 27v20c-31 9-61-2-59-35zM48-53c0 20 12 33 32 33 41-3 63-29 60-74-43 2-92-5-92 41" id="N"/><g id="e"><use transform="matrix(0.05555555555555555,0,0,0.05555555555555555,0,0)" xlink:href="#L"/><use transform="matrix(0.05555555555555555,0,0,0.05555555555555555,13.333333333333332,0)" xlink:href="#M"/><use transform="matrix(0.05555555555555555,0,0,0.05555555555555555,29.944444444444443,0)" xlink:href="#N"/><use transform="matrix(0.05555555555555555,0,0,0.05555555555555555,41.05555555555556,0)" xlink:href="#C"/><use transform="matrix(0.05555555555555555,0,0,0.05555555555555555,45.44444444444444,0)" xlink:href="#B"/></g><g id="f"><use transform="matrix(0.05555555555555555,0,0,0.05555555555555555,0,0)" xlink:href="#y"/><use transform="matrix(0.05555555555555555,0,0,0.05555555555555555,11.11111111111111,0)" xlink:href="#z"/><use transform="matrix(0.05555555555555555,0,0,0.05555555555555555,22.22222222222222,0)" xlink:href="#A"/><use transform="matrix(0.05555555555555555,0,0,0.05555555555555555,33.33333333333333,0)" xlink:href="#B"/><use transform="matrix(0.05555555555555555,0,0,0.05555555555555555,37.722222222222214,0)" xlink:href="#C"/><use transform="matrix(0.05555555555555555,0,0,0.05555555555555555,42.1111111111111,0)" xlink:href="#D"/><use transform="matrix(0.05555555555555555,0,0,0.05555555555555555,52.1111111111111,0)" xlink:href="#E"/><use transform="matrix(0.05555555555555555,0,0,0.05555555555555555,63.22222222222222,0)" xlink:href="#F"/><use transform="matrix(0.05555555555555555,0,0,0.05555555555555555,74.33333333333333,0)" xlink:href="#G"/></g><path fill="#3a414a" d="M87 75C49 33 22-17 22-94c0-76 28-126 65-167h31c-38 41-64 92-64 168S80 34 118 75H87" id="O"/><path fill="#3a414a" d="M185-189c-5-48-123-54-124 2 14 75 158 14 163 119 3 78-121 87-175 55-17-10-28-26-33-46l33-7c5 56 141 63 141-1 0-78-155-14-162-118-5-82 145-84 179-34 5 7 8 16 11 25" id="P"/><path fill="#3a414a" d="M240 0l2-218c-23 76-54 145-80 218h-23L58-218 59 0H30v-248h44l77 211c21-75 51-140 76-211h43V0h-30" id="Q"/><path fill="#3a414a" d="M33-261c38 41 65 92 65 168S71 34 33 75H2C39 34 66-17 66-93S39-220 2-261h31" id="R"/><g id="g"><use transform="matrix(0.05555555555555555,0,0,0.05555555555555555,0,0)" xlink:href="#O"/><use transform="matrix(0.05555555555555555,0,0,0.05555555555555555,6.611111111111111,0)" xlink:href="#P"/><use transform="matrix(0.05555555555555555,0,0,0.05555555555555555,19.944444444444443,0)" xlink:href="#Q"/><use transform="matrix(0.05555555555555555,0,0,0.05555555555555555,36.55555555555556,0)" xlink:href="#w"/><use transform="matrix(0.05555555555555555,0,0,0.05555555555555555,48.72222222222222,0)" xlink:href="#x"/><use transform="matrix(0.05555555555555555,0,0,0.05555555555555555,62.05555555555555,0)" xlink:href="#R"/></g><path fill="#3a414a" d="M177-190C167-65 218 103 67 71c-23-6-38-20-44-43l32-5c15 47 100 32 89-28v-30C133-14 115 1 83 1 29 1 15-40 15-95c0-56 16-97 71-98 29-1 48 16 59 35 1-10 0-23 2-32h30zM94-22c36 0 50-32 50-73 0-42-14-75-50-75-39 0-46 34-46 75s6 73 46 73" id="S"/><path fill="#3a414a" d="M141 0L90-78 38 0H4l68-98-65-92h35l48 74 47-74h35l-64 92 68 98h-35" id="T"/><g id="h"><use transform="matrix(0.05555555555555555,0,0,0.05555555555555555,0,0)" xlink:href="#I"/><use transform="matrix(0.05555555555555555,0,0,0.05555555555555555,11.11111111111111,0)" xlink:href="#S"/><use transform="matrix(0.05555555555555555,0,0,0.05555555555555555,22.22222222222222,0)" xlink:href="#C"/><use transform="matrix(0.05555555555555555,0,0,0.05555555555555555,26.61111111111111,0)" xlink:href="#I"/><use transform="matrix(0.05555555555555555,0,0,0.05555555555555555,37.72222222222222,0)" xlink:href="#T"/></g><path fill="#333" d="M101-251c82-7 93 87 43 132L82-64C71-53 59-42 53-27h129V0H18c2-99 128-94 128-182 0-28-16-43-45-43s-46 15-49 41l-32-3c6-41 34-60 81-64" id="U"/><use transform="matrix(0.04320987654320987,0,0,0.04320987654320987,0,0)" xlink:href="#U" id="i"/><path fill="#3a414a" d="M59-47c-2 24 18 29 38 22v24C64 9 27 4 27-40v-127H5v-23h24l9-43h21v43h35v23H59v120" id="V"/><path fill="#3a414a" d="M179-190L93 31C79 59 56 82 12 73V49c39 6 53-20 64-50L1-190h34L92-34l54-156h33" id="W"/><g id="j"><use transform="matrix(0.05555555555555555,0,0,0.05555555555555555,0,0)" xlink:href="#I"/><use transform="matrix(0.05555555555555555,0,0,0.05555555555555555,11.11111111111111,0)" xlink:href="#V"/><use transform="matrix(0.05555555555555555,0,0,0.05555555555555555,16.666666666666664,0)" xlink:href="#J"/><use transform="matrix(0.05555555555555555,0,0,0.05555555555555555,22.22222222222222,0)" xlink:href="#W"/></g><path fill="#333" d="M27 0v-27h64v-190l-56 39v-29l58-41h29v221h61V0H27" id="X"/><use transform="matrix(0.04320987654320987,0,0,0.04320987654320987,0,0)" xlink:href="#X" id="k"/><path fill="#333" d="M126-127c33 6 58 20 58 59 0 88-139 92-164 29-3-8-5-16-6-25l32-3c6 27 21 44 54 44 32 0 52-15 52-46 0-38-36-46-79-43v-28c39 1 72-4 72-42 0-27-17-43-46-43-28 0-47 15-49 41l-32-3c6-42 35-63 81-64 48-1 79 21 79 65 0 36-21 52-52 59" id="Y"/><g id="l"><use transform="matrix(0.04320987654320987,0,0,0.04320987654320987,0,0)" xlink:href="#X"/><use transform="matrix(0.04320987654320987,0,0,0.04320987654320987,8.641975308641973,0)" xlink:href="#Y"/></g><path fill="#333" d="M155-56V0h-30v-56H8v-25l114-167h33v167h35v25h-35zm-30-156c-27 46-58 90-88 131h88v-131" id="Z"/><g id="m"><use transform="matrix(0.04320987654320987,0,0,0.04320987654320987,0,0)" xlink:href="#X"/><use transform="matrix(0.04320987654320987,0,0,0.04320987654320987,8.641975308641973,0)" xlink:href="#Z"/></g><g id="n"><use transform="matrix(0.05555555555555555,0,0,0.05555555555555555,0,0)" xlink:href="#Q"/><use transform="matrix(0.05555555555555555,0,0,0.05555555555555555,16.61111111111111,0)" xlink:href="#N"/><use transform="matrix(0.05555555555555555,0,0,0.05555555555555555,27.72222222222222,0)" xlink:href="#V"/><use transform="matrix(0.05555555555555555,0,0,0.05555555555555555,33.27777777777778,0)" xlink:href="#G"/><use transform="matrix(0.05555555555555555,0,0,0.05555555555555555,39.888888888888886,0)" xlink:href="#C"/><use transform="matrix(0.05555555555555555,0,0,0.05555555555555555,44.27777777777777,0)" xlink:href="#T"/></g><path fill="#3a414a" d="M143 4C61 4 22-44 18-125c-5-107 100-154 193-111 17 8 29 25 37 43l-32 9c-13-25-37-40-76-40-61 0-88 39-88 99 0 61 29 100 91 101 35 0 62-11 79-27v-45h-74v-28h105v86C228-13 192 4 143 4" id="aa"/><path fill="#3a414a" d="M266 0h-40l-56-210L115 0H75L2-248h35L96-30l15-64 43-154h32l59 218 59-218h35" id="ab"/><g id="o"><use transform="matrix(0.05555555555555555,0,0,0.05555555555555555,0,0)" xlink:href="#aa"/><use transform="matrix(0.05555555555555555,0,0,0.05555555555555555,15.555555555555555,0)" xlink:href="#ab"/></g><path fill="#333" d="M54-142c48-35 137-8 131 61C196 18 31 33 14-55l32-4c7 23 22 37 52 37 35-1 51-22 54-58 4-55-73-65-99-34H22l8-134h141v27H59" id="ac"/><g id="p"><use transform="matrix(0.04320987654320987,0,0,0.04320987654320987,0,0)" xlink:href="#X"/><use transform="matrix(0.04320987654320987,0,0,0.04320987654320987,8.641975308641973,0)" xlink:href="#ac"/></g><path fill="#333" d="M110-160c48 1 74 30 74 79 0 53-28 85-80 85-65 0-83-55-86-122-5-90 50-162 133-122 14 7 22 21 27 39l-31 6c-5-40-67-38-82-6-9 19-15 44-15 74 11-20 30-34 60-33zm-7 138c34 0 49-23 49-58s-16-56-50-56c-29 0-50 16-49 49 1 36 15 65 50 65" id="ad"/><g id="q"><use transform="matrix(0.04320987654320987,0,0,0.04320987654320987,0,0)" xlink:href="#X"/><use transform="matrix(0.04320987654320987,0,0,0.04320987654320987,8.641975308641973,0)" xlink:href="#ad"/></g><path fill="#3a414a" d="M16-82v-28h88v28H16" id="ae"/><path fill="#3a414a" d="M100-194c62-1 85 37 85 99 1 63-27 99-86 99S16-35 15-95c0-66 28-99 85-99zM99-20c44 1 53-31 53-75 0-43-8-75-51-75s-53 32-53 75 10 74 51 75" id="af"/><g id="r"><use transform="matrix(0.05555555555555555,0,0,0.05555555555555555,0,0)" xlink:href="#P"/><use transform="matrix(0.05555555555555555,0,0,0.05555555555555555,13.333333333333332,0)" xlink:href="#F"/><use transform="matrix(0.05555555555555555,0,0,0.05555555555555555,24.444444444444443,0)" xlink:href="#B"/><use transform="matrix(0.05555555555555555,0,0,0.05555555555555555,28.833333333333332,0)" xlink:href="#J"/><use transform="matrix(0.05555555555555555,0,0,0.05555555555555555,34.388888888888886,0)" xlink:href="#ae"/><use transform="matrix(0.05555555555555555,0,0,0.05555555555555555,41,0)" xlink:href="#E"/><use transform="matrix(0.05555555555555555,0,0,0.05555555555555555,52.111111111111114,0)" xlink:href="#af"/><use transform="matrix(0.05555555555555555,0,0,0.05555555555555555,63.22222222222223,0)" xlink:href="#D"/><use transform="matrix(0.05555555555555555,0,0,0.05555555555555555,73.22222222222223,0)" xlink:href="#V"/><use transform="matrix(0.05555555555555555,0,0,0.05555555555555555,78.77777777777779,0)" xlink:href="#F"/><use transform="matrix(0.05555555555555555,0,0,0.05555555555555555,89.8888888888889,0)" xlink:href="#K"/></g><g id="s"><use transform="matrix(0.05555555555555555,0,0,0.05555555555555555,0,0)" xlink:href="#I"/><use transform="matrix(0.05555555555555555,0,0,0.05555555555555555,11.11111111111111,0)" xlink:href="#V"/><use transform="matrix(0.05555555555555555,0,0,0.05555555555555555,16.666666666666664,0)" xlink:href="#J"/><use transform="matrix(0.05555555555555555,0,0,0.05555555555555555,22.22222222222222,0)" xlink:href="#W"/></g><path fill="#3a414a" d="M108 0H70L1-190h34L89-25l56-165h34" id="ag"/><g id="t"><use transform="matrix(0.05555555555555555,0,0,0.05555555555555555,0,0)" xlink:href="#D"/><use transform="matrix(0.05555555555555555,0,0,0.05555555555555555,10,0)" xlink:href="#F"/><use transform="matrix(0.05555555555555555,0,0,0.05555555555555555,21.11111111111111,0)" xlink:href="#G"/><use transform="matrix(0.05555555555555555,0,0,0.05555555555555555,27.72222222222222,0)" xlink:href="#ag"/><use transform="matrix(0.05555555555555555,0,0,0.05555555555555555,37.72222222222222,0)" xlink:href="#F"/><use transform="matrix(0.05555555555555555,0,0,0.05555555555555555,48.83333333333333,0)" xlink:href="#G"/></g><path fill="#333" d="M80-196l47-18 7 23-49 13 32 44-20 13-27-46-27 45-21-12 33-44-49-13 8-23 47 19-2-53h23" id="ah"/><g id="u"><use transform="matrix(0.04320987654320987,0,0,0.04320987654320987,0,0)" xlink:href="#X"/><use transform="matrix(0.04320987654320987,0,0,0.04320987654320987,8.641975308641973,0)" xlink:href="#ah"/></g></defs></g></svg>