<svg xmlns="http://www.w3.org/2000/svg" xmlns:xlink="http://www.w3.org/1999/xlink" xmlns:lucid="lucid" width="772.05" height="425.05"><g transform="translate(555.110807071132 -237.78882655117343)" lucid:page-tab-id="2m0TpKtktVT6"><path d="M-460 446a6 6 0 0 1 6-6h158a6 6 0 0 1 6 6v88a6 6 0 0 1-6 6h-158a6 6 0 0 1-6-6z" stroke="#3a414a" fill="#fff"/><use xlink:href="#a" transform="matrix(1,0,0,1,-447,453) translate(32.72222222222223 70.7944)"/><use xlink:href="#b" transform="matrix(1,0,0,1,-447,453) translate(78.94444444444446 70.7944)"/><path d="M-436.43 459.2a6 6 0 0 1 6-6h110.86a6 6 0 0 1 6 6v28.08a6 6 0 0 1-6 6h-110.86a6 6 0 0 1-6-6z" stroke="#3a414a" fill="#fff"/><use xlink:href="#c" transform="matrix(1,0,0,1,-431.4247910293918,458.20830056252305) translate(5.611111111111107 19.875)"/><path d="M-276.78 526.84c0 9.28-7.9 16.8-17.63 16.8-9.75 0-17.65-7.52-17.65-16.8 0-9.27 7.9-16.8 17.64-16.8 9.72 0 17.62 7.53 17.62 16.8z" stroke="#979ea8" fill="#dfe3e8"/><use xlink:href="#d" transform="matrix(1,0,0,1,-307.0452884939898,515.0510826800145) translate(4.358024691358027 15.444444444444443)"/><path d="M-346.5 266a6 6 0 0 1 6-6h110.87a6 6 0 0 1 6 6v44.3a6 6 0 0 1-6 6H-340.5a6 6 0 0 1-6-6z" stroke="#3a414a" fill="#fff"/><use xlink:href="#e" transform="matrix(1,0,0,1,-341.48840647286477,265.00000000000904) translate(40.388888888888886 27.75)"/><path d="M-215.38 302.92c0 9.27-7.9 16.8-17.64 16.8-9.73 0-17.63-7.53-17.63-16.8s7.9-16.8 17.63-16.8c9.74 0 17.64 7.53 17.64 16.8z" stroke="#979ea8" fill="#dfe3e8"/><use xlink:href="#f" transform="matrix(1,0,0,1,-245.64746097009822,291.1288364139333) translate(8.679012345679013 15.444444444444443)"/><path d="M-373.25 436.45l.44-1.88.72-2.6.82-2.53.92-2.5 1.04-2.45 1.15-2.45 1.28-2.45 1.42-2.47 1.6-2.52 1.8-2.6 2.1-2.72 2.4-2.9 2.88-3.2 3.63-3.7 5.07-4.76 28.35-24.7 3.63-3.7 2.9-3.2 2.4-2.9 2.07-2.73 1.8-2.6 1.62-2.53 1.4-2.47 1.3-2.45 1.14-2.44 1.04-2.45.92-2.5.83-2.52.72-2.6.63-2.7.53-2.78.44-2.9.32-3.07.2-3.24.07-2.95" stroke="#3a414a" stroke-linejoin="round" fill="none"/><path d="M-374.82 451.1l-3.1-14.68 9.23 1z" stroke="#3a414a" fill="#3a414a"/><path d="M-293.16 317.3h-1v-.5h1z" stroke="#3a414a" stroke-width=".05" fill="#3a414a"/><path d="M-534.6 266a6 6 0 0 1 6-6h136.96a6 6 0 0 1 6 6v44.3a6 6 0 0 1-6 6H-528.6a6 6 0 0 1-6-6z" stroke="#3a414a" fill="#fff"/><use xlink:href="#g" transform="matrix(1,0,0,1,-529.610807071132,265) translate(43.47222222222222 18.9375)"/><use xlink:href="#h" transform="matrix(1,0,0,1,-529.610807071132,265) translate(29.02777777777778 42.9375)"/><path d="M-375.4 302.92c0 9.27-7.88 16.8-17.62 16.8-9.73 0-17.63-7.53-17.63-16.8s7.9-16.8 17.63-16.8c9.74 0 17.63 7.53 17.63 16.8z" stroke="#979ea8" fill="#dfe3e8"/><use xlink:href="#i" transform="matrix(1,0,0,1,-405.6474609700982,291.1288364139333) translate(4.358024691358027 15.444444444444443)"/><path d="M-384.64 288.14h21.27" stroke="#3a414a" fill="none"/><path d="M-384.63 288.64h-.5v-1h.5z" stroke="#3a414a" stroke-width=".05" fill="#3a414a"/><path d="M-348.6 288.14l-14.27 4.64v-9.27z" stroke="#3a414a" fill="#3a414a"/><path d="M-520 586a6 6 0 0 1 6-6h268a6 6 0 0 1 6 6v48a6 6 0 0 1-6 6h-268a6 6 0 0 1-6-6z" stroke="#000" stroke-opacity="0" fill="#fff" fill-opacity="0"/><use xlink:href="#j" transform="matrix(1,0,0,1,-515,585) translate(69.27625868055557 20.681423611111107)"/><use xlink:href="#k" transform="matrix(1,0,0,1,-515,585) translate(131.23263888888889 20.681423611111107)"/><use xlink:href="#l" transform="matrix(1,0,0,1,-515,585) translate(147.32747395833334 20.681423611111107)"/><use xlink:href="#m" transform="matrix(1,0,0,1,-515,585) translate(85.30653211805557 38.91059027777777)"/><use xlink:href="#n" transform="matrix(1,0,0,1,-515,585) translate(108.52593315972223 38.91059027777777)"/><path d="M-101.3 583.66a6 6 0 0 1 6-6h244.43a6 6 0 0 1 6 6v52.68a6 6 0 0 1-6 6H-95.3a6 6 0 0 1-6-6z" stroke="#000" stroke-opacity="0" fill="#fff" fill-opacity="0"/><use xlink:href="#j" transform="matrix(1,0,0,1,-96.30239859907056,582.65625) translate(57.77625868055557 24.743923611111107)"/><use xlink:href="#o" transform="matrix(1,0,0,1,-96.30239859907056,582.65625) translate(119.73263888888889 24.743923611111107)"/><use xlink:href="#l" transform="matrix(1,0,0,1,-96.30239859907056,582.65625) translate(135.82747395833334 24.743923611111107)"/><use xlink:href="#m" transform="matrix(1,0,0,1,-96.30239859907056,582.65625) translate(77.95366753472223 42.97309027777777)"/><use xlink:href="#p" transform="matrix(1,0,0,1,-96.30239859907056,582.65625) translate(101.17306857638889 42.97309027777777)"/><use xlink:href="#q" transform="matrix(1,0,0,1,-96.30239859907056,582.65625) translate(134.82107204861111 42.97309027777777)"/><path d="M-60 446a6 6 0 0 1 6-6h168a6 6 0 0 1 6 6v88a6 6 0 0 1-6 6H-54a6 6 0 0 1-6-6z" stroke="#3a414a" fill="#fff"/><use xlink:href="#a" transform="matrix(1,0,0,1,-47,453.000000000009) translate(2.6111111111111143 70.7944)"/><use xlink:href="#r" transform="matrix(1,0,0,1,-47,453.000000000009) translate(48.833333333333336 70.7944)"/><use xlink:href="#s" transform="matrix(1,0,0,1,-47,453.000000000009) translate(87.72222222222223 70.7944)"/><use xlink:href="#t" transform="matrix(1,0,0,1,-47,453.000000000009) translate(106.61111111111111 70.7944)"/><path d="M-34.44 459.2a6 6 0 0 1 6-6H82.4a6 6 0 0 1 6 6v28.08a6 6 0 0 1-6 6H-28.43a6 6 0 0 1-6-6z" stroke="#3a414a" fill="#fff"/><use xlink:href="#u" transform="matrix(1,0,0,1,-29.443117978874966,458.20830056252305) translate(14.833333333333329 19.875)"/><use xlink:href="#v" transform="matrix(1,0,0,1,-29.443117978874966,458.20830056252305) translate(65.94444444444444 19.875)"/><path d="M144.4 526.84c0 9.28-7.9 16.8-17.64 16.8s-17.63-7.52-17.63-16.8c0-9.27 7.9-16.8 17.63-16.8 9.74 0 17.63 7.53 17.63 16.8z" stroke="#979ea8" fill="#dfe3e8"/><use xlink:href="#d" transform="matrix(1,0,0,1,114.1286713156266,515.0510826800235) translate(4.358024691358027 15.444444444444443)"/><path d="M65.33 264.3a6 6 0 0 1 6-6H182.2a6 6 0 0 1 6 6v44.28a6 6 0 0 1-6 6H71.32a6 6 0 0 1-6-6z" stroke="#3a414a" fill="#fff"/><use xlink:href="#e" transform="matrix(1,0,0,1,70.33301430684989,263.28882655118247) translate(40.388888888888886 27.75)"/><path d="M196.44 301.2c0 9.28-7.9 16.8-17.63 16.8-9.73 0-17.63-7.52-17.63-16.8 0-9.26 7.9-16.78 17.64-16.78s17.64 7.52 17.64 16.8z" stroke="#979ea8" fill="#dfe3e8"/><use xlink:href="#f" transform="matrix(1,0,0,1,166.17395980961646,289.41766296510673) translate(8.679012345679013 15.444444444444443)"/><path d="M26.96 436.32l-.04-28.18" stroke="#3a414a" stroke-linejoin="round" fill="none"/><path d="M26.98 451.1l-4.66-14.27h9.27z" stroke="#3a414a" fill="#3a414a"/><path d="M27.42 408.16h-1v-.52h1z" stroke="#3a414a" stroke-width=".05" fill="#3a414a"/><path d="M-122.8 264.3a6 6 0 0 1 6-6H20.2a6 6 0 0 1 6 6v44.28a6 6 0 0 1-6 6H-116.8a6 6 0 0 1-6-6z" stroke="#3a414a" fill="#fff"/><g><use xlink:href="#g" transform="matrix(1,0,0,1,-117.78938629141726,263.28882655117343) translate(43.47222222222222 18.9375)"/><use xlink:href="#h" transform="matrix(1,0,0,1,-117.78938629141726,263.28882655117343) translate(29.02777777777778 42.9375)"/></g><path d="M36.44 301.2c0 9.28-7.9 16.8-17.63 16.8-9.73 0-17.63-7.52-17.63-16.8 0-9.26 7.9-16.78 17.63-16.78 9.74 0 17.64 7.52 17.64 16.8z" stroke="#979ea8" fill="#dfe3e8"/><g><use xlink:href="#i" transform="matrix(1,0,0,1,6.173959809616434,289.41766296510673) translate(4.358024691358027 15.444444444444443)"/></g><path d="M27.18 286.43h21.27" stroke="#3a414a" fill="none"/><path d="M27.2 286.93h-.52v-1h.5z" stroke="#3a414a" stroke-width=".05" fill="#3a414a"/><path d="M63.22 286.43l-14.27 4.64v-9.27z" stroke="#3a414a" fill="#3a414a"/><path d="M-58.1 356.86a6 6 0 0 1 6-6h158.02a6 6 0 0 1 6 6v44.3a6 6 0 0 1-6 6h-158a6 6 0 0 1-6-6z" stroke="#3a414a" fill="#fff"/><g><use xlink:href="#a" transform="matrix(1,0,0,1,-53.08628467364724,355.85558672442676) translate(34.611111111111114 18.9375)"/><use xlink:href="#w" transform="matrix(1,0,0,1,-53.08628467364724,355.85558672442676) translate(80.83333333333334 18.9375)"/><use xlink:href="#x" transform="matrix(1,0,0,1,-53.08628467364724,355.85558672442676) translate(6.030864197530846 41.15972222222222)"/><use xlink:href="#y" transform="matrix(1,0,0,1,-53.08628467364724,355.85558672442676) translate(79.01851851851852 41.15972222222222)"/><use xlink:href="#z" transform="matrix(1,0,0,1,-53.08628467364724,355.85558672442676) translate(134.27777777777777 41.15972222222222)"/></g><path d="M133.97 396.8c0 9.27-7.9 16.78-17.63 16.78-9.74 0-17.64-7.5-17.64-16.8 0-9.26 7.9-16.78 17.64-16.78 9.73 0 17.63 7.52 17.63 16.8z" stroke="#979ea8" fill="#dfe3e8"/><g><use xlink:href="#A" transform="matrix(1,0,0,1,103.7050780598035,385.0000000000181) translate(4.358024691358027 15.444444444444443)"/></g><path d="M88.68 335.82l10.1-10.55 1.25-2.28.85-2.33.55-2.55.17-2.54" stroke="#3a414a" stroke-linejoin="round" fill="none"/><path d="M82.88 348.88l1.56-14.92 8.47 3.77z" stroke="#3a414a" fill="#3a414a"/><path d="M102.14 315.35h-1v-.27h1z" stroke="#3a414a" stroke-width=".05" fill="#3a414a"/><defs><path fill="#3a414a" d="M266 0h-40l-56-210L115 0H75L2-248h35L96-30l15-64 43-154h32l59 218 59-218h35" id="B"/><path fill="#3a414a" d="M100-194c63 0 86 42 84 106H49c0 40 14 67 53 68 26 1 43-12 49-29l28 8c-11 28-37 45-77 45C44 4 14-33 15-96c1-61 26-98 85-98zm52 81c6-60-76-77-97-28-3 7-6 17-6 28h103" id="C"/><path fill="#3a414a" d="M115-194c53 0 69 39 70 98 0 66-23 100-70 100C84 3 66-7 56-30L54 0H23l1-261h32v101c10-23 28-34 59-34zm-8 174c40 0 45-34 45-75 0-40-5-75-45-74-42 0-51 32-51 76 0 43 10 73 51 73" id="D"/><g id="a"><use transform="matrix(0.05555555555555555,0,0,0.05555555555555555,0,0)" xlink:href="#B"/><use transform="matrix(0.05555555555555555,0,0,0.05555555555555555,18.444444444444443,0)" xlink:href="#C"/><use transform="matrix(0.05555555555555555,0,0,0.05555555555555555,29.555555555555554,0)" xlink:href="#D"/></g><path fill="#3a414a" d="M141-36C126-15 110 5 73 4 37 3 15-17 15-53c-1-64 63-63 125-63 3-35-9-54-41-54-24 1-41 7-42 31l-33-3c5-37 33-52 76-52 45 0 72 20 72 64v82c-1 20 7 32 28 27v20c-31 9-61-2-59-35zM48-53c0 20 12 33 32 33 41-3 63-29 60-74-43 2-92-5-92 41" id="E"/><path fill="#3a414a" d="M115-194c55 1 70 41 70 98S169 2 115 4C84 4 66-9 55-30l1 105H24l-1-265h31l2 30c10-21 28-34 59-34zm-8 174c40 0 45-34 45-75s-6-73-45-74c-42 0-51 32-51 76 0 43 10 73 51 73" id="F"/><g id="b"><use transform="matrix(0.05555555555555555,0,0,0.05555555555555555,0,0)" xlink:href="#E"/><use transform="matrix(0.05555555555555555,0,0,0.05555555555555555,11.11111111111111,0)" xlink:href="#F"/><use transform="matrix(0.05555555555555555,0,0,0.05555555555555555,22.22222222222222,0)" xlink:href="#F"/></g><path fill="#3a414a" d="M185-189c-5-48-123-54-124 2 14 75 158 14 163 119 3 78-121 87-175 55-17-10-28-26-33-46l33-7c5 56 141 63 141-1 0-78-155-14-162-118-5-82 145-84 179-34 5 7 8 16 11 25" id="G"/><path fill="#3a414a" d="M100-194c62-1 85 37 85 99 1 63-27 99-86 99S16-35 15-95c0-66 28-99 85-99zM99-20c44 1 53-31 53-75 0-43-8-75-51-75s-53 32-53 75 10 74 51 75" id="H"/><path fill="#3a414a" d="M96-169c-40 0-48 33-48 73s9 75 48 75c24 0 41-14 43-38l32 2c-6 37-31 61-74 61-59 0-76-41-82-99-10-93 101-131 147-64 4 7 5 14 7 22l-32 3c-4-21-16-35-41-35" id="I"/><path fill="#3a414a" d="M143 0L79-87 56-68V0H24v-261h32v163l83-92h37l-77 82L181 0h-38" id="J"/><path fill="#3a414a" d="M59-47c-2 24 18 29 38 22v24C64 9 27 4 27-40v-127H5v-23h24l9-43h21v43h35v23H59v120" id="K"/><g id="c"><use transform="matrix(0.05555555555555555,0,0,0.05555555555555555,0,0)" xlink:href="#B"/><use transform="matrix(0.05555555555555555,0,0,0.05555555555555555,18.444444444444443,0)" xlink:href="#C"/><use transform="matrix(0.05555555555555555,0,0,0.05555555555555555,29.555555555555554,0)" xlink:href="#D"/><use transform="matrix(0.05555555555555555,0,0,0.05555555555555555,40.666666666666664,0)" xlink:href="#G"/><use transform="matrix(0.05555555555555555,0,0,0.05555555555555555,54,0)" xlink:href="#H"/><use transform="matrix(0.05555555555555555,0,0,0.05555555555555555,65.11111111111111,0)" xlink:href="#I"/><use transform="matrix(0.05555555555555555,0,0,0.05555555555555555,75.11111111111111,0)" xlink:href="#J"/><use transform="matrix(0.05555555555555555,0,0,0.05555555555555555,85.11111111111111,0)" xlink:href="#C"/><use transform="matrix(0.05555555555555555,0,0,0.05555555555555555,96.22222222222223,0)" xlink:href="#K"/></g><path fill="#333" d="M101-251c82-7 93 87 43 132L82-64C71-53 59-42 53-27h129V0H18c2-99 128-94 128-182 0-28-16-43-45-43s-46 15-49 41l-32-3c6-41 34-60 81-64" id="L"/><path fill="#333" d="M101-251c68 0 85 55 85 127S166 4 100 4C33 4 14-52 14-124c0-73 17-127 87-127zm-1 229c47 0 54-49 54-102s-4-102-53-102c-51 0-55 48-55 102 0 53 5 102 54 102" id="M"/><g id="d"><use transform="matrix(0.04320987654320987,0,0,0.04320987654320987,0,0)" xlink:href="#L"/><use transform="matrix(0.04320987654320987,0,0,0.04320987654320987,8.641975308641973,0)" xlink:href="#M"/></g><path fill="#3a414a" d="M117-194c89-4 53 116 60 194h-32v-121c0-31-8-49-39-48C34-167 62-67 57 0H25l-1-190h30c1 10-1 24 2 32 11-22 29-35 61-36" id="N"/><path fill="#3a414a" d="M101-234c-31-9-42 10-38 44h38v23H63V0H32v-167H5v-23h27c-7-52 17-82 69-68v24" id="O"/><path fill="#3a414a" d="M179-190L93 31C79 59 56 82 12 73V49c39 6 53-20 64-50L1-190h34L92-34l54-156h33" id="P"/><g id="e"><use transform="matrix(0.05555555555555555,0,0,0.05555555555555555,0,0)" xlink:href="#N"/><use transform="matrix(0.05555555555555555,0,0,0.05555555555555555,11.11111111111111,0)" xlink:href="#K"/><use transform="matrix(0.05555555555555555,0,0,0.05555555555555555,16.666666666666664,0)" xlink:href="#O"/><use transform="matrix(0.05555555555555555,0,0,0.05555555555555555,22.22222222222222,0)" xlink:href="#P"/></g><path fill="#333" d="M27 0v-27h64v-190l-56 39v-29l58-41h29v221h61V0H27" id="Q"/><use transform="matrix(0.04320987654320987,0,0,0.04320987654320987,0,0)" xlink:href="#Q" id="f"/><path fill="#3a414a" d="M197 0v-115H63V0H30v-248h33v105h134v-105h34V0h-34" id="R"/><path fill="#3a414a" d="M127-220V0H93v-220H8v-28h204v28h-85" id="S"/><path fill="#3a414a" d="M30-248c87 1 191-15 191 75 0 78-77 80-158 76V0H30v-248zm33 125c57 0 124 11 124-50 0-59-68-47-124-48v98" id="T"/><g id="g"><use transform="matrix(0.05555555555555555,0,0,0.05555555555555555,0,0)" xlink:href="#R"/><use transform="matrix(0.05555555555555555,0,0,0.05555555555555555,14.388888888888888,0)" xlink:href="#S"/><use transform="matrix(0.05555555555555555,0,0,0.05555555555555555,26.555555555555554,0)" xlink:href="#S"/><use transform="matrix(0.05555555555555555,0,0,0.05555555555555555,38.72222222222222,0)" xlink:href="#T"/></g><path fill="#3a414a" d="M84 4C-5 8 30-112 23-190h32v120c0 31 7 50 39 49 72-2 45-101 50-169h31l1 190h-30c-1-10 1-25-2-33-11 22-28 36-60 37" id="U"/><path fill="#3a414a" d="M24 0v-261h32V0H24" id="V"/><path fill="#3a414a" d="M24-231v-30h32v30H24zM24 0v-190h32V0H24" id="W"/><path fill="#3a414a" d="M135-143c-3-34-86-38-87 0 15 53 115 12 119 90S17 21 10-45l28-5c4 36 97 45 98 0-10-56-113-15-118-90-4-57 82-63 122-42 12 7 21 19 24 35" id="X"/><path fill="#3a414a" d="M106-169C34-169 62-67 57 0H25v-261h32l-1 103c12-21 28-36 61-36 89 0 53 116 60 194h-32v-121c2-32-8-49-39-48" id="Y"/><path fill="#3a414a" d="M114-163C36-179 61-72 57 0H25l-1-190h30c1 12-1 29 2 39 6-27 23-49 58-41v29" id="Z"/><g id="h"><use transform="matrix(0.05555555555555555,0,0,0.05555555555555555,0,0)" xlink:href="#F"/><use transform="matrix(0.05555555555555555,0,0,0.05555555555555555,11.11111111111111,0)" xlink:href="#U"/><use transform="matrix(0.05555555555555555,0,0,0.05555555555555555,22.22222222222222,0)" xlink:href="#D"/><use transform="matrix(0.05555555555555555,0,0,0.05555555555555555,33.33333333333333,0)" xlink:href="#V"/><use transform="matrix(0.05555555555555555,0,0,0.05555555555555555,37.722222222222214,0)" xlink:href="#W"/><use transform="matrix(0.05555555555555555,0,0,0.05555555555555555,42.1111111111111,0)" xlink:href="#X"/><use transform="matrix(0.05555555555555555,0,0,0.05555555555555555,52.1111111111111,0)" xlink:href="#Y"/><use transform="matrix(0.05555555555555555,0,0,0.05555555555555555,63.22222222222222,0)" xlink:href="#C"/><use transform="matrix(0.05555555555555555,0,0,0.05555555555555555,74.33333333333333,0)" xlink:href="#Z"/></g><path fill="#333" d="M126-127c33 6 58 20 58 59 0 88-139 92-164 29-3-8-5-16-6-25l32-3c6 27 21 44 54 44 32 0 52-15 52-46 0-38-36-46-79-43v-28c39 1 72-4 72-42 0-27-17-43-46-43-28 0-47 15-49 41l-32-3c6-42 35-63 81-64 48-1 79 21 79 65 0 36-21 52-52 59" id="aa"/><g id="i"><use transform="matrix(0.04320987654320987,0,0,0.04320987654320987,0,0)" xlink:href="#Q"/><use transform="matrix(0.04320987654320987,0,0,0.04320987654320987,8.641975308641973,0)" xlink:href="#aa"/></g><path fill="#3a414a" d="M976-673H364l-90 516h712L958 0H59l253-1456h889l-28 158H472l-81 468h612" id="ab"/><path fill="#3a414a" d="M496-688l294-394h222L578-538 842 0H645L466-404 161 0H-60l447-556-256-526h198" id="ac"/><path fill="#3a414a" d="M693 0c-10-37-6-74-4-114C590-22 484 20 373 20 194 20 47-112 59-292c17-247 243-368 520-365l189 1c15-84 22-185-26-240-65-75-223-71-306-12-47 33-77 73-88 125l-182 1c29-208 221-321 452-321 215 0 378 144 342 364l-88 536c-5 65-10 126 7 186l-2 17H693zM280-192c64 73 206 62 294 10 51-30 96-69 133-120l39-223c-244-11-476 9-502 206-6 51 6 93 36 127" id="ad"/><path fill="#3a414a" d="M388-1083l-23 121c91-96 200-143 329-140 138 2 239 67 273 174 101-119 221-177 359-174 217 3 334 162 296 391L1503 0h-180l118-713c18-149-38-232-178-234-141-2-262 104-283 228L857 0H675l120-712c18-144-45-231-178-233-113-3-202 49-269 154L211 0H30l188-1082" id="ae"/><path fill="#3a414a" d="M1019-681c4 288-98 524-268 639-157 107-414 73-514-64l-97 522H-41l260-1498 164-1-20 121c89-96 196-144 321-140 224 6 332 183 335 421zM708-236c74-84 127-229 130-405s-61-298-216-305c-105-5-195 47-271 149l-91 519c41 96 114 145 219 148 90 2 166-34 229-106" id="af"/><path fill="#3a414a" d="M227 0H47l266-1536h181" id="ag"/><path fill="#3a414a" d="M267-488c-26 188 71 355 247 357 107 1 205-45 296-144l104 88C832-68 690 21 499 20 214 19 51-235 92-543c28-211 142-407 287-495 158-96 394-79 506 47 97 108 124 311 89 503H267zm509-376c-76-117-261-108-358-11-54 54-99 131-132 235l526 1c18-84 2-166-36-225" id="ah"/><g id="j"><use transform="matrix(0.007595486111111109,0,0,0.007595486111111109,0,0)" xlink:href="#ab"/><use transform="matrix(0.007595486111111109,0,0,0.007595486111111109,8.651258680555554,0)" xlink:href="#ac"/><use transform="matrix(0.007595486111111109,0,0,0.007595486111111109,16.208767361111107,0)" xlink:href="#ad"/><use transform="matrix(0.007595486111111109,0,0,0.007595486111111109,24.49544270833333,0)" xlink:href="#ae"/><use transform="matrix(0.007595486111111109,0,0,0.007595486111111109,37.79513888888888,0)" xlink:href="#af"/><use transform="matrix(0.007595486111111109,0,0,0.007595486111111109,46.34006076388888,0)" xlink:href="#ag"/><use transform="matrix(0.007595486111111109,0,0,0.007595486111111109,50.07703993055554,0)" xlink:href="#ah"/></g><path fill="#3a414a" d="M604 0H422l214-1228-387 136 31-176 540-195h32" id="ai"/><path fill="#3a414a" d="M74-16C7-82 57-210 154-210c101 0 147 125 79 190-39 37-118 44-159 4zm153-883c-67-66-17-194 80-194 101 0 147 125 79 190-39 37-118 44-159 4" id="aj"/><g id="k"><use transform="matrix(0.007595486111111109,0,0,0.007595486111111109,0,0)" xlink:href="#ai"/><use transform="matrix(0.007595486111111109,0,0,0.007595486111111109,8.552517361111109,0)" xlink:href="#aj"/></g><path fill="#3a414a" d="M59 0l253-1456 378 1c400 3 578 331 514 758C1145-305 876 2 447 0H59zm400-156c417 0 602-378 575-807-13-197-135-333-339-334l-223-1L274-157" id="ak"/><path fill="#3a414a" d="M227 0H47l188-1082h180zm73-1444c36-38 112-44 152-6 39 38 38 117 0 155-36 37-114 43-153 5s-35-116 1-154" id="al"/><path fill="#3a414a" d="M424-253l390-829h191L460 0H322L110-1082h178" id="am"/><path fill="#3a414a" d="M704-917c-165-30-276 20-359 148L212 0H31l188-1082 175-1-27 126c100-123 200-175 357-132" id="an"/><path fill="#3a414a" d="M419-273l385-809h200L362 180C273 355 158 442 18 440c-25-1-61-7-109-18l16-150c230 41 293-145 371-295L109-1082h189" id="ao"/><g id="l"><use transform="matrix(0.007595486111111109,0,0,0.007595486111111109,0,0)" xlink:href="#ak"/><use transform="matrix(0.007595486111111109,0,0,0.007595486111111109,9.972873263888886,0)" xlink:href="#ah"/><use transform="matrix(0.007595486111111109,0,0,0.007595486111111109,18.039279513888886,0)" xlink:href="#ag"/><use transform="matrix(0.007595486111111109,0,0,0.007595486111111109,21.77625868055555,0)" xlink:href="#al"/><use transform="matrix(0.007595486111111109,0,0,0.007595486111111109,25.513237847222214,0)" xlink:href="#am"/><use transform="matrix(0.007595486111111109,0,0,0.007595486111111109,32.79730902777777,0)" xlink:href="#ah"/><use transform="matrix(0.007595486111111109,0,0,0.007595486111111109,40.86371527777777,0)" xlink:href="#an"/><use transform="matrix(0.007595486111111109,0,0,0.007595486111111109,46.18055555555555,0)" xlink:href="#ao"/></g><g id="m"><use transform="matrix(0.007595486111111109,0,0,0.007595486111111109,0,0)" xlink:href="#am"/><use transform="matrix(0.007595486111111109,0,0,0.007595486111111109,7.382812499999998,0)" xlink:href="#al"/><use transform="matrix(0.007595486111111109,0,0,0.007595486111111109,11.119791666666664,0)" xlink:href="#ad"/></g><path fill="#3a414a" d="M446-449l-4 176c160-402 336-788 503-1183h159l115 1024 10 166 63-201 372-989h193L1287 0h-171L990-1069l-4-100-42 116L480 0H309L195-1456h183" id="ap"/><path fill="#3a414a" d="M929-987c140 173 98 566-7 750C838-89 727 21 526 21c-131 0-228-52-291-147L198 0H31l267-1536h181L370-962c87-96 192-143 316-140 104 3 184 42 243 115zM797-386c48-137 69-368-5-478-35-52-88-80-159-82-113-3-208 54-286 170l-81 471c40 110 115 167 225 169 166 3 258-114 306-250" id="aq"/><path fill="#3a414a" d="M234-422c-13 180 114 285 295 285s328-86 348-238c15-107-40-185-166-234-77-30-158-55-231-88-195-89-289-214-273-374 26-261 247-405 533-405 268 0 447 166 441 442l-189-1c15-178-89-280-260-283-175-3-317 91-335 244-12 100 47 175 183 226 75 28 154 52 224 85 188 87 278 216 261 386-26 266-254 397-544 397C245 20 38-139 46-423" id="ar"/><path fill="#3a414a" d="M368-1032c145-90 364-94 497 4 125 92 200 279 173 497-26 214-136 393-288 484-146 88-361 90-494-7C135-143 64-314 82-523c19-226 133-414 286-509zm19 191c-89 104-138 255-123 450 11 144 88 261 232 261 228 0 333-194 361-401 31-227-34-407-232-420-93-6-173 35-238 110" id="as"/><path fill="#3a414a" d="M326-201c75 91 241 91 337 15 51-40 86-91 102-154l171-1C897-129 721 20 480 20 176 20 48-242 89-567c26-210 129-382 279-471 164-98 412-83 528 50 66 75 102 166 102 279l-169-1c-1-136-82-241-213-241-267 0-370 265-356 565 4 78 28 139 66 185" id="at"/><path fill="#3a414a" d="M419-499L277-372 213 0H32l267-1536h181L320-618c157-163 330-309 495-464h235L553-621 895 0H697" id="au"/><path fill="#3a414a" d="M509-1344l-46 262h197l-25 143H439L326-266c-10 74 15 129 84 126 22 0 51-3 88-10L484 1C371 33 244 25 190-60c-34-53-56-122-42-209l110-670H67l25-143h191l46-262h180" id="av"/><g id="n"><use transform="matrix(0.007595486111111109,0,0,0.007595486111111109,0,0)" xlink:href="#ap"/><use transform="matrix(0.007595486111111109,0,0,0.007595486111111109,13.223741319444441,0)" xlink:href="#ah"/><use transform="matrix(0.007595486111111109,0,0,0.007595486111111109,21.29014756944444,0)" xlink:href="#aq"/><use transform="matrix(0.007595486111111109,0,0,0.007595486111111109,29.835069444444436,0)" xlink:href="#ar"/><use transform="matrix(0.007595486111111109,0,0,0.007595486111111109,38.86610243055554,0)" xlink:href="#as"/><use transform="matrix(0.007595486111111109,0,0,0.007595486111111109,47.54774305555554,0)" xlink:href="#at"/><use transform="matrix(0.007595486111111109,0,0,0.007595486111111109,55.52300347222221,0)" xlink:href="#au"/><use transform="matrix(0.007595486111111109,0,0,0.007595486111111109,63.095703124999986,0)" xlink:href="#ah"/><use transform="matrix(0.007595486111111109,0,0,0.007595486111111109,71.16210937499999,0)" xlink:href="#av"/></g><path fill="#3a414a" d="M950 0H23l22-141c212-206 425-411 635-619 113-113 174-217 187-312 19-144-68-249-201-253-185-5-306 126-326 297l-179 1c32-271 217-448 512-449 226-1 401 153 379 383-12 128-84 264-221 404-181 185-374 358-560 538h703" id="aw"/><g id="o"><use transform="matrix(0.007595486111111109,0,0,0.007595486111111109,0,0)" xlink:href="#aw"/><use transform="matrix(0.007595486111111109,0,0,0.007595486111111109,8.552517361111109,0)" xlink:href="#aj"/></g><g id="p"><use transform="matrix(0.007595486111111109,0,0,0.007595486111111109,0,0)" xlink:href="#ap"/><use transform="matrix(0.007595486111111109,0,0,0.007595486111111109,13.223741319444441,0)" xlink:href="#ah"/><use transform="matrix(0.007595486111111109,0,0,0.007595486111111109,21.29014756944444,0)" xlink:href="#aq"/></g><path fill="#3a414a" d="M798-1455c280-6 475 162 452 437-24 282-246 450-558 449l-346-1L247 0H59l253-1456zM373-727l324 1c202 2 344-111 366-291 21-169-84-279-246-280l-345-1" id="ax"/><path fill="#3a414a" d="M718-107C633-20 526 23 395 20 181 15 71-151 110-383l116-699h181L290-380c-17 133 23 239 147 243 129 4 229-48 300-157l136-788h181L866 0H695" id="ay"/><path fill="#3a414a" d="M231-333c-1 124 89 201 217 201 122 0 240-56 253-161 9-75-30-131-123-158l-188-55c-159-55-234-145-230-272 6-193 214-324 421-324 206 0 374 135 365 339l-180-1c4-110-81-185-192-185-115 0-223 63-235 164-8 63 29 112 115 137 217 64 438 103 427 341C871-88 677 18 442 20 228 22 41-122 50-334" id="az"/><path fill="#3a414a" d="M369-950c95-103 204-154 327-151 212 3 318 162 280 392L858 0H677l119-712c18-142-34-234-164-234-111 0-206 55-286 174L212 0H31l267-1536h181" id="aA"/><g id="q"><use transform="matrix(0.007595486111111109,0,0,0.007595486111111109,0,0)" xlink:href="#ax"/><use transform="matrix(0.007595486111111109,0,0,0.007595486111111109,9.59309895833333,0)" xlink:href="#ay"/><use transform="matrix(0.007595486111111109,0,0,0.007595486111111109,17.986111111111107,0)" xlink:href="#az"/><use transform="matrix(0.007595486111111109,0,0,0.007595486111111109,25.839843749999993,0)" xlink:href="#aA"/></g><g id="r"><use transform="matrix(0.05555555555555555,0,0,0.05555555555555555,0,0)" xlink:href="#E"/><use transform="matrix(0.05555555555555555,0,0,0.05555555555555555,11.11111111111111,0)" xlink:href="#F"/><use transform="matrix(0.05555555555555555,0,0,0.05555555555555555,22.22222222222222,0)" xlink:href="#F"/></g><path fill="#3a414a" d="M234-2c-28 10-62 0-77-18C117 19 8 12 13-65c3-43 29-61 60-76-25-40-17-114 47-108 35 3 59 15 59 50 0 44-40 53-71 69 14 26 32 50 51 72 14-21 24-43 30-72l26 8c-9 33-21 57-38 82 13 13 33 22 57 15v23zM97-151c25-10 52-18 56-48-1-18-13-29-33-29-42 0-39 50-23 77zM42-66c-3 51 71 58 98 28-20-24-41-51-56-80-23 10-40 24-42 52" id="aB"/><use transform="matrix(0.05555555555555555,0,0,0.05555555555555555,0,0)" xlink:href="#aB" id="s"/><path fill="#3a414a" d="M205 0l-28-72H64L36 0H1l101-248h38L239 0h-34zm-38-99l-47-123c-12 45-31 82-46 123h93" id="aC"/><g id="t"><use transform="matrix(0.05555555555555555,0,0,0.05555555555555555,0,0)" xlink:href="#T"/><use transform="matrix(0.05555555555555555,0,0,0.05555555555555555,13.333333333333332,0)" xlink:href="#B"/><use transform="matrix(0.05555555555555555,0,0,0.05555555555555555,31.444444444444443,0)" xlink:href="#aC"/></g><g id="u"><use transform="matrix(0.05555555555555555,0,0,0.05555555555555555,0,0)" xlink:href="#T"/><use transform="matrix(0.05555555555555555,0,0,0.05555555555555555,13.333333333333332,0)" xlink:href="#U"/><use transform="matrix(0.05555555555555555,0,0,0.05555555555555555,24.444444444444443,0)" xlink:href="#X"/><use transform="matrix(0.05555555555555555,0,0,0.05555555555555555,34.44444444444444,0)" xlink:href="#Y"/></g><path fill="#3a414a" d="M33 0v-248h34V0H33" id="aD"/><g id="v"><use transform="matrix(0.05555555555555555,0,0,0.05555555555555555,0,0)" xlink:href="#aC"/><use transform="matrix(0.05555555555555555,0,0,0.05555555555555555,13.333333333333332,0)" xlink:href="#T"/><use transform="matrix(0.05555555555555555,0,0,0.05555555555555555,26.666666666666664,0)" xlink:href="#aD"/></g><g id="w"><use transform="matrix(0.05555555555555555,0,0,0.05555555555555555,0,0)" xlink:href="#T"/><use transform="matrix(0.05555555555555555,0,0,0.05555555555555555,13.333333333333332,0)" xlink:href="#U"/><use transform="matrix(0.05555555555555555,0,0,0.05555555555555555,24.444444444444443,0)" xlink:href="#X"/><use transform="matrix(0.05555555555555555,0,0,0.05555555555555555,34.44444444444444,0)" xlink:href="#Y"/></g><path fill="#3a414a" d="M87 75C49 33 22-17 22-94c0-76 28-126 65-167h31c-38 41-64 92-64 168S80 34 118 75H87" id="aE"/><path fill="#3a414a" d="M143 4C61 4 22-44 18-125c-5-107 100-154 193-111 17 8 29 25 37 43l-32 9c-13-25-37-40-76-40-61 0-88 39-88 99 0 61 29 100 91 101 35 0 62-11 79-27v-45h-74v-28h105v86C228-13 192 4 143 4" id="aF"/><path fill="#3a414a" d="M177-190C167-65 218 103 67 71c-23-6-38-20-44-43l32-5c15 47 100 32 89-28v-30C133-14 115 1 83 1 29 1 15-40 15-95c0-56 16-97 71-98 29-1 48 16 59 35 1-10 0-23 2-32h30zM94-22c36 0 50-32 50-73 0-42-14-75-50-75-39 0-46 34-46 75s6 73 46 73" id="aG"/><path fill="#3a414a" d="M68-38c1 34 0 65-14 84H32c9-13 17-26 17-46H33v-38h35" id="aH"/><g id="x"><use transform="matrix(0.04938271604938272,0,0,0.04938271604938272,0,0)" xlink:href="#aE"/><use transform="matrix(0.04938271604938272,0,0,0.04938271604938272,5.8765432098765435,0)" xlink:href="#aF"/><use transform="matrix(0.04938271604938272,0,0,0.04938271604938272,19.703703703703706,0)" xlink:href="#H"/><use transform="matrix(0.04938271604938272,0,0,0.04938271604938272,29.58024691358025,0)" xlink:href="#H"/><use transform="matrix(0.04938271604938272,0,0,0.04938271604938272,39.4567901234568,0)" xlink:href="#aG"/><use transform="matrix(0.04938271604938272,0,0,0.04938271604938272,49.33333333333334,0)" xlink:href="#V"/><use transform="matrix(0.04938271604938272,0,0,0.04938271604938272,53.23456790123457,0)" xlink:href="#C"/><use transform="matrix(0.04938271604938272,0,0,0.04938271604938272,63.111111111111114,0)" xlink:href="#aH"/></g><g id="y"><use transform="matrix(0.04938271604938272,0,0,0.04938271604938272,0,0)" xlink:href="#aC"/><use transform="matrix(0.04938271604938272,0,0,0.04938271604938272,11.851851851851853,0)" xlink:href="#F"/><use transform="matrix(0.04938271604938272,0,0,0.04938271604938272,21.7283950617284,0)" xlink:href="#F"/><use transform="matrix(0.04938271604938272,0,0,0.04938271604938272,31.60493827160494,0)" xlink:href="#V"/><use transform="matrix(0.04938271604938272,0,0,0.04938271604938272,35.50617283950618,0)" xlink:href="#C"/><use transform="matrix(0.04938271604938272,0,0,0.04938271604938272,45.38271604938272,0)" xlink:href="#aH"/></g><path fill="#3a414a" d="M33 0v-38h34V0H33" id="aI"/><path fill="#3a414a" d="M33-261c38 41 65 92 65 168S71 34 33 75H2C39 34 66-17 66-93S39-220 2-261h31" id="aJ"/><g id="z"><use transform="matrix(0.04938271604938272,0,0,0.04938271604938272,0,0)" xlink:href="#aI"/><use transform="matrix(0.04938271604938272,0,0,0.04938271604938272,4.938271604938272,0)" xlink:href="#aI"/><use transform="matrix(0.04938271604938272,0,0,0.04938271604938272,9.876543209876544,0)" xlink:href="#aI"/><use transform="matrix(0.04938271604938272,0,0,0.04938271604938272,14.814814814814817,0)" xlink:href="#aJ"/></g><path fill="#333" d="M155-56V0h-30v-56H8v-25l114-167h33v167h35v25h-35zm-30-156c-27 46-58 90-88 131h88v-131" id="aK"/><g id="A"><use transform="matrix(0.04320987654320987,0,0,0.04320987654320987,0,0)" xlink:href="#L"/><use transform="matrix(0.04320987654320987,0,0,0.04320987654320987,8.641975308641973,0)" xlink:href="#aK"/></g></defs></g></svg>